<?xml version="1.0" standalone="no"?>
<!DOCTYPE svg PUBLIC "-//W3C//DTD SVG 20010904//EN"
 "http://www.w3.org/TR/2001/REC-SVG-20010904/DTD/svg10.dtd">
<svg version="1.0" xmlns="http://www.w3.org/2000/svg"
 width="1657.000000pt" height="578.000000pt" viewBox="0 0 1657.000000 578.000000"
 preserveAspectRatio="xMidYMid meet">
<metadata>
Created by potrace 1.16, written by Peter Selinger 2001-2019
</metadata>
<g transform="translate(0.000000,578.000000) scale(0.100000,-0.100000)"
fill="#FFFFFF" stroke="none">
<path d="M448 5520 c-118 -30 -244 -132 -305 -246 -61 -114 -78 -198 -77 -389
0 -126 4 -192 18 -255 104 -490 432 -981 809 -1210 235 -142 490 -170 669 -73
56 31 143 119 181 183 34 59 73 180 82 252 l6 57 -37 16 c-21 9 -45 14 -52 13
-9 -2 -21 -27 -29 -58 -31 -125 -99 -213 -216 -283 -393 -236 -1074 391 -1233
1134 -24 115 -25 329 0 418 41 152 108 231 239 282 77 29 88 31 172 26 89 -6
177 -27 265 -63 116 -48 177 -91 297 -207 95 -92 127 -118 145 -115 49 7 31
36 -99 166 -172 173 -325 274 -504 333 -72 24 -267 35 -331 19z m-56 -1423
c150 -235 269 -382 406 -497 153 -129 285 -186 460 -199 45 -3 83 -10 85 -16
4 -17 -178 -17 -246 0 -242 60 -542 336 -694 638 -29 57 -53 106 -53 110 0 18
17 3 42 -36z"/>
<path d="M2693 5241 c-29 -11 -65 -28 -81 -39 -45 -32 -118 -116 -141 -161
-13 -25 -28 -41 -39 -41 -18 0 -309 42 -417 60 -33 5 -103 10 -156 10 -95 0
-97 0 -199 -51 -57 -27 -127 -56 -155 -64 -28 -7 -73 -20 -100 -29 -26 -9
-109 -21 -184 -27 -156 -12 -215 -31 -232 -76 -12 -33 -4 -88 18 -123 9 -13
22 -55 29 -93 19 -98 50 -158 141 -273 138 -173 237 -243 465 -330 187 -72
313 -133 367 -180 34 -30 56 -64 96 -149 64 -135 120 -229 193 -319 l55 -69
-18 -33 c-28 -52 -134 -154 -160 -154 -13 0 -39 7 -58 15 -80 33 -218 6 -264
-51 -54 -67 -49 -134 11 -163 51 -24 214 -14 406 26 47 9 136 16 236 17 l162
1 56 -39 c87 -60 121 -106 209 -286 102 -209 135 -266 212 -365 199 -257 424
-389 698 -411 42 -3 77 -9 77 -14 0 -5 -24 -20 -52 -33 -43 -21 -85 -28 -228
-42 -290 -28 -334 -42 -408 -133 -46 -58 -49 -78 -11 -75 13 1 206 5 429 9
445 7 427 4 576 76 l69 33 245 5 c135 3 250 2 255 -3 17 -14 11 -244 -9 -317
-24 -92 -115 -273 -174 -350 -88 -113 -286 -262 -445 -334 -205 -94 -533 -169
-857 -197 -150 -12 -235 -8 -408 22 -333 57 -480 118 -788 325 -194 131 -264
168 -373 198 -124 34 -280 19 -388 -38 -58 -30 -143 -138 -143 -181 0 -21 17
-19 25 4 9 29 71 80 129 107 104 48 261 24 436 -67 52 -28 174 -106 270 -174
278 -197 433 -276 645 -329 239 -59 254 -61 525 -60 255 0 332 6 570 45 218
35 424 102 576 185 232 126 550 395 694 585 32 43 85 133 120 202 53 106 66
145 91 263 17 77 34 169 38 205 7 51 17 77 43 115 59 84 93 189 124 389 18
122 16 389 -5 500 -35 184 -46 226 -78 319 -88 253 -184 453 -309 641 -63 95
-224 256 -342 343 -142 105 -337 207 -492 258 -103 34 -181 50 -394 79 -99 14
-230 32 -291 40 -219 31 -338 71 -410 139 l-35 34 32 63 c32 61 33 69 33 179
-1 132 -20 197 -80 267 -90 106 -304 162 -432 114z m303 -91 c68 -33 103 -74
111 -128 l6 -37 -44 55 c-63 78 -114 102 -209 98 -55 -3 -88 -10 -124 -28 -59
-30 -156 -119 -156 -143 0 -9 -5 -17 -11 -17 -38 0 63 143 126 178 108 60 210
68 301 22z m-850 -190 c103 -20 193 -55 178 -70 -5 -5 -48 -1 -109 11 -181 35
-400 21 -523 -33 -26 -11 -89 -33 -141 -49 -83 -26 -110 -29 -222 -29 -129 0
-198 12 -169 30 18 11 144 26 183 22 34 -4 175 37 317 90 153 58 295 66 486
28z m-51 -190 c41 -39 50 -82 27 -134 -33 -72 -104 -96 -170 -56 -69 43 -79
134 -21 193 27 27 34 29 85 25 39 -3 61 -11 79 -28z m580 -472 c-18 -57 -72
-141 -150 -229 -102 -117 -153 -147 -268 -156 -85 -6 -143 2 -115 18 9 5 49
16 89 24 167 35 191 52 332 239 72 97 98 126 109 126 5 0 6 -10 3 -22z m1065
-1279 c-72 -261 -56 -507 55 -854 34 -106 63 -161 122 -226 23 -25 33 -43 27
-49 -26 -26 -153 116 -207 230 -88 186 -144 502 -119 674 19 130 51 221 111
316 47 73 49 50 11 -91z"/>
<path d="M9590 4185 c-91 -30 -169 -50 -275 -69 -51 -9 -84 -21 -92 -32 -34
-46 3 -94 72 -94 59 0 109 -21 132 -56 17 -27 18 -78 21 -1003 2 -680 6 -979
14 -988 16 -20 66 -16 86 7 9 11 27 44 38 73 12 28 29 53 37 55 8 2 43 -15 77
-37 152 -99 370 -136 561 -96 145 31 313 136 404 254 58 76 118 196 141 281
25 93 24 290 0 390 -73 291 -269 477 -549 520 -89 13 -178 3 -280 -31 -60 -21
-182 -93 -207 -124 -7 -8 -19 -15 -26 -15 -12 0 -14 79 -14 478 0 576 12 536
-140 487z m613 -966 c134 -45 222 -149 279 -329 20 -65 23 -95 23 -230 0 -163
-9 -219 -51 -328 -31 -80 -65 -133 -119 -187 -53 -54 -103 -80 -183 -96 -153
-32 -330 50 -396 183 l-26 52 0 401 c0 333 2 404 14 421 23 33 119 95 178 114
76 26 201 26 281 -1z"/>
<path d="M11605 3995 c-86 -16 -137 -34 -225 -81 -133 -69 -206 -172 -236
-334 -22 -111 -8 -233 37 -327 36 -75 121 -170 200 -224 57 -39 263 -143 418
-212 208 -92 340 -200 377 -309 42 -123 8 -253 -90 -347 -96 -90 -208 -127
-356 -118 -122 8 -184 31 -247 92 -55 53 -70 89 -80 186 -7 72 20 138 71 171
39 25 44 42 20 76 -24 35 -68 52 -132 52 -110 0 -189 -44 -238 -132 -26 -47
-29 -62 -28 -133 4 -287 264 -441 711 -422 163 7 236 23 358 82 114 56 178
105 237 182 74 99 93 157 92 293 0 134 -20 206 -83 299 -91 134 -213 213 -581
381 -241 109 -347 192 -388 303 -12 32 -22 75 -22 97 0 95 77 218 165 262 98
51 248 62 360 27 141 -43 220 -177 171 -293 -14 -33 -81 -96 -102 -96 -6 0
-17 -7 -24 -15 -17 -21 11 -62 55 -81 100 -41 250 6 312 99 21 32 34 65 38
102 26 202 -100 344 -363 411 -78 20 -118 24 -226 23 -72 0 -162 -7 -201 -14z"/>
<path d="M6000 3900 c-25 -25 -27 -82 -4 -101 9 -8 49 -16 89 -20 81 -6 124
-29 153 -82 16 -29 17 -90 20 -725 3 -708 0 -779 -35 -827 -27 -37 -95 -65
-156 -65 -62 0 -87 -19 -87 -67 0 -66 -42 -63 772 -63 711 0 735 1 752 19 13
14 27 81 51 237 39 248 38 253 -36 275 -35 11 -45 10 -73 -5 -28 -15 -36 -29
-60 -104 -38 -119 -81 -206 -117 -236 -55 -46 -114 -56 -334 -56 -287 0 -334
18 -355 133 -7 37 -10 297 -8 754 3 640 4 701 20 730 29 53 72 76 153 82 40 4
80 12 89 20 23 19 21 76 -4 101 -19 19 -33 20 -415 20 -382 0 -396 -1 -415
-20z"/>
<path d="M1745 3379 c-100 -70 -135 -103 -135 -126 0 -36 34 -63 79 -63 36 0
43 -5 76 -50 40 -55 46 -58 66 -33 8 9 37 26 65 39 43 19 64 38 64 60 0 3 -20
26 -45 53 -41 44 -44 50 -35 80 11 40 4 60 -27 72 -38 14 -46 12 -108 -32z"/>
<path d="M8235 3389 c-71 -9 -174 -39 -230 -66 -43 -22 -103 -82 -127 -128
-16 -30 -22 -60 -22 -115 -1 -65 3 -81 27 -123 35 -60 87 -95 151 -101 55 -5
102 10 136 44 l21 21 -45 49 c-97 104 -66 238 70 302 60 28 72 30 147 26 100
-6 173 -35 221 -89 53 -58 66 -117 66 -299 l0 -157 -82 -6 c-46 -4 -114 -7
-153 -7 -66 -1 -224 -20 -290 -35 -168 -40 -293 -124 -347 -233 -31 -62 -33
-74 -33 -167 0 -113 10 -145 66 -221 75 -102 195 -154 353 -154 188 0 365 79
457 204 l29 38 10 -28 c26 -72 35 -86 79 -127 68 -63 144 -90 246 -85 82 4
130 20 149 51 18 28 -5 51 -59 59 -57 8 -91 31 -120 79 -19 33 -20 54 -25 489
-6 480 -7 487 -55 580 -20 37 -94 105 -140 128 -62 31 -171 61 -265 72 -96 11
-136 11 -235 -1z m413 -867 c-3 -134 -4 -140 -37 -205 -42 -82 -101 -138 -189
-180 -59 -28 -77 -32 -152 -32 -157 0 -210 52 -210 206 0 132 44 206 159 263
74 37 279 82 389 85 l44 1 -4 -138z"/>
<path d="M13555 3384 c-80 -16 -228 -84 -298 -137 -26 -21 -49 -37 -52 -37 -3
0 -5 29 -5 64 0 95 -11 116 -58 116 -22 0 -67 -9 -100 -19 -33 -11 -100 -27
-149 -36 -48 -9 -112 -21 -141 -27 -62 -11 -84 -39 -64 -82 9 -20 20 -25 79
-31 81 -8 115 -24 131 -60 9 -19 12 -228 12 -831 0 -886 3 -847 -61 -880 -17
-8 -57 -18 -88 -21 -31 -3 -62 -10 -68 -16 -18 -13 -16 -48 3 -75 l15 -22 349
0 c342 0 350 0 360 20 15 27 9 71 -10 81 -8 4 -41 11 -73 14 -69 8 -112 39
-127 93 -10 38 -14 514 -4 524 3 4 31 -6 62 -22 103 -51 151 -63 272 -68 136
-5 234 12 334 57 197 89 327 235 398 447 20 61 23 88 23 234 0 145 -3 174 -24
240 -84 270 -272 440 -528 479 -87 13 -99 13 -188 -5z m109 -159 c143 -42 241
-160 296 -356 25 -91 28 -307 6 -409 -46 -210 -139 -349 -263 -393 -178 -64
-363 -8 -471 142 l-32 44 0 413 0 412 48 42 c62 56 81 68 149 96 70 28 186 32
267 9z"/>
<path d="M14450 3367 c-18 -9 -26 -22 -28 -45 -4 -39 12 -62 42 -62 12 0 47
-7 77 -16 81 -24 122 -73 192 -229 83 -185 84 -189 211 -515 62 -162 137 -351
165 -419 62 -150 64 -184 19 -279 -133 -282 -330 -427 -452 -331 -60 47 -79
159 -36 216 11 16 18 36 15 45 -19 48 -141 58 -215 18 -70 -39 -90 -77 -90
-173 0 -98 20 -146 86 -207 170 -157 435 -123 597 76 107 131 215 322 297 524
17 41 101 248 186 460 264 652 288 709 325 753 36 44 119 77 193 77 61 0 79
14 79 62 0 58 -7 59 -331 56 -321 -3 -312 -1 -312 -64 0 -43 16 -54 83 -54 57
0 94 -12 110 -34 16 -23 -12 -112 -148 -466 -17 -47 -62 -167 -100 -267 -41
-112 -71 -180 -79 -177 -12 5 -81 158 -151 339 -207 532 -245 599 -379 665
-101 50 -298 76 -356 47z"/>
<path d="M2087 2851 c-33 -3 -62 -12 -67 -21 -11 -18 -7 -26 158 -300 172
-286 313 -499 377 -568 46 -49 54 -54 92 -54 65 1 119 38 168 114 17 27 16 29
-8 70 -30 51 -152 208 -292 373 -99 117 -278 344 -293 372 -10 17 -61 23 -135
14z m32 -129 c19 -31 64 -109 101 -174 102 -174 295 -461 354 -523 59 -62 88
-69 145 -34 18 11 36 18 39 15 10 -10 -30 -45 -64 -56 -53 -18 -96 2 -152 69
-70 84 -315 457 -383 584 -33 60 -66 119 -74 131 -16 22 -20 46 -7 46 4 0 22
-26 41 -58z"/>
</g>
</svg>
