<?xml version="1.0" standalone="no"?>
<!DOCTYPE svg PUBLIC "-//W3C//DTD SVG 20010904//EN"
 "http://www.w3.org/TR/2001/REC-SVG-20010904/DTD/svg10.dtd">
<svg version="1.0" xmlns="http://www.w3.org/2000/svg"
 width="1578.000000pt" height="1578.000000pt" viewBox="0 0 578.000000 578.000000"
 preserveAspectRatio="xMidYMid meet">
<metadata>
Created by potrace 1.16, written by Peter Selinger 2001-2019
</metadata>
<g transform="translate(0.000000,578.000000) scale(0.100000,-0.100000)"
fill="#1126E9" stroke="none">
<path d="M448 5520 c-118 -30 -244 -132 -305 -246 -61 -114 -78 -198 -77 -389
0 -126 4 -192 18 -255 104 -490 432 -981 809 -1210 235 -142 490 -170 669 -73
56 31 143 119 181 183 34 59 73 180 82 252 l6 57 -37 16 c-21 9 -45 14 -52 13
-9 -2 -21 -27 -29 -58 -31 -125 -99 -213 -216 -283 -393 -236 -1074 391 -1233
1134 -24 115 -25 329 0 418 41 152 108 231 239 282 77 29 88 31 172 26 89 -6
177 -27 265 -63 116 -48 177 -91 297 -207 95 -92 127 -118 145 -115 49 7 31
36 -99 166 -172 173 -325 274 -504 333 -72 24 -267 35 -331 19z m-56 -1423
c150 -235 269 -382 406 -497 153 -129 285 -186 460 -199 45 -3 83 -10 85 -16
4 -17 -178 -17 -246 0 -242 60 -542 336 -694 638 -29 57 -53 106 -53 110 0 18
17 3 42 -36z"/>
<path d="M2693 5241 c-29 -11 -65 -28 -81 -39 -45 -32 -118 -116 -141 -161
-13 -25 -28 -41 -39 -41 -18 0 -309 42 -417 60 -33 5 -103 10 -156 10 -95 0
-97 0 -199 -51 -57 -27 -127 -56 -155 -64 -28 -7 -73 -20 -100 -29 -26 -9
-109 -21 -184 -27 -156 -12 -215 -31 -232 -76 -12 -33 -4 -88 18 -123 9 -13
22 -55 29 -93 19 -98 50 -158 141 -273 138 -173 237 -243 465 -330 187 -72
313 -133 367 -180 34 -30 56 -64 96 -149 64 -135 120 -229 193 -319 l55 -69
-18 -33 c-28 -52 -134 -154 -160 -154 -13 0 -39 7 -58 15 -80 33 -218 6 -264
-51 -54 -67 -49 -134 11 -163 51 -24 214 -14 406 26 47 9 136 16 236 17 l162
1 56 -39 c87 -60 121 -106 209 -286 102 -209 135 -266 212 -365 199 -257 424
-389 698 -411 42 -3 77 -9 77 -14 0 -5 -24 -20 -52 -33 -43 -21 -85 -28 -228
-42 -290 -28 -334 -42 -408 -133 -46 -58 -49 -78 -11 -75 13 1 206 5 429 9
445 7 427 4 576 76 l69 33 245 5 c135 3 250 2 255 -3 17 -14 11 -244 -9 -317
-24 -92 -115 -273 -174 -350 -88 -113 -286 -262 -445 -334 -205 -94 -533 -169
-857 -197 -150 -12 -235 -8 -408 22 -333 57 -480 118 -788 325 -194 131 -264
168 -373 198 -124 34 -280 19 -388 -38 -58 -30 -143 -138 -143 -181 0 -21 17
-19 25 4 9 29 71 80 129 107 104 48 261 24 436 -67 52 -28 174 -106 270 -174
278 -197 433 -276 645 -329 239 -59 254 -61 525 -60 255 0 332 6 570 45 218
35 424 102 576 185 232 126 550 395 694 585 32 43 85 133 120 202 53 106 66
145 91 263 17 77 34 169 38 205 7 51 17 77 43 115 59 84 93 189 124 389 18
122 16 389 -5 500 -35 184 -46 226 -78 319 -88 253 -184 453 -309 641 -63 95
-224 256 -342 343 -142 105 -337 207 -492 258 -103 34 -181 50 -394 79 -99 14
-230 32 -291 40 -219 31 -338 71 -410 139 l-35 34 32 63 c32 61 33 69 33 179
-1 132 -20 197 -80 267 -90 106 -304 162 -432 114z m303 -91 c68 -33 103 -74
111 -128 l6 -37 -44 55 c-63 78 -114 102 -209 98 -55 -3 -88 -10 -124 -28 -59
-30 -156 -119 -156 -143 0 -9 -5 -17 -11 -17 -38 0 63 143 126 178 108 60 210
68 301 22z m-850 -190 c103 -20 193 -55 178 -70 -5 -5 -48 -1 -109 11 -181 35
-400 21 -523 -33 -26 -11 -89 -33 -141 -49 -83 -26 -110 -29 -222 -29 -129 0
-198 12 -169 30 18 11 144 26 183 22 34 -4 175 37 317 90 153 58 295 66 486
28z m-51 -190 c41 -39 50 -82 27 -134 -33 -72 -104 -96 -170 -56 -69 43 -79
134 -21 193 27 27 34 29 85 25 39 -3 61 -11 79 -28z m580 -472 c-18 -57 -72
-141 -150 -229 -102 -117 -153 -147 -268 -156 -85 -6 -143 2 -115 18 9 5 49
16 89 24 167 35 191 52 332 239 72 97 98 126 109 126 5 0 6 -10 3 -22z m1065
-1279 c-72 -261 -56 -507 55 -854 34 -106 63 -161 122 -226 23 -25 33 -43 27
-49 -26 -26 -153 116 -207 230 -88 186 -144 502 -119 674 19 130 51 221 111
316 47 73 49 50 11 -91z"/>

<path d="M1745 3379 c-100 -70 -135 -103 -135 -126 0 -36 34 -63 79 -63 36 0
43 -5 76 -50 40 -55 46 -58 66 -33 8 9 37 26 65 39 43 19 64 38 64 60 0 3 -20
26 -45 53 -41 44 -44 50 -35 80 11 40 4 60 -27 72 -38 14 -46 12 -108 -32z"/>

<path d="M2087 2851 c-33 -3 -62 -12 -67 -21 -11 -18 -7 -26 158 -300 172
-286 313 -499 377 -568 46 -49 54 -54 92 -54 65 1 119 38 168 114 17 27 16 29
-8 70 -30 51 -152 208 -292 373 -99 117 -278 344 -293 372 -10 17 -61 23 -135
14z m32 -129 c19 -31 64 -109 101 -174 102 -174 295 -461 354 -523 59 -62 88
-69 145 -34 18 11 36 18 39 15 10 -10 -30 -45 -64 -56 -53 -18 -96 2 -152 69
-70 84 -315 457 -383 584 -33 60 -66 119 -74 131 -16 22 -20 46 -7 46 4 0 22
-26 41 -58z"/>
</g>
</svg>
