<svg xmlns="http://www.w3.org/2000/svg" xmlns:v="https://svgstorm.com"
viewBox = "0 0 960 1342"
width="960"
height="1342">
<g fill="None" fill-opacity="0.0" stroke="#000000" stroke-opacity="0.00" stroke-width="0.3"><path d="
M 0.00 1342.00 
L 960.00 1342.00
L 960.00 0.00
L 0.00 0.00
L 0.00 1342.00
M 552.00 234.00 
C 565.92 221.87 577.44 215.51 593.70 205.70 C 609.95 195.88 621.67 188.52 642.67 184.67 C 663.67 180.83 667.94 210.62 667.00 229.00 C 666.06 247.38 670.55 278.70 667.00 297.00 C 663.45 315.30 656.65 331.93 646.70 346.70 C 636.74 361.46 629.40 374.72 617.00 387.00
C 614.96 393.72 618.92 401.04 618.00 408.00 C 617.08 414.96 617.64 421.98 617.00 429.00
C 619.23 428.48 620.73 430.54 623.00 430.00
C 627.56 423.29 633.06 417.23 636.77 409.77 C 640.49 402.31 644.21 394.22 647.77 386.77 C 651.33 379.32 651.44 366.04 660.00 365.00
C 663.41 394.64 664.39 425.70 659.00 455.00
C 684.85 483.85 687.00 523.93 687.00 562.00
C 687.00 596.14 678.03 631.34 666.00 662.00
C 650.40 701.76 626.13 736.51 601.00 771.00
C 590.50 785.41 582.21 799.17 572.70 814.70 C 563.18 830.23 556.15 845.78 549.22 863.22 C 542.30 880.67 537.69 900.15 533.07 919.07 C 528.46 938.00 527.08 962.61 522.00 981.00
C 492.51 915.81 490.84 834.29 523.00 770.00
C 539.60 731.08 565.07 697.38 586.00 661.00
C 603.53 630.53 620.39 595.71 629.00 562.00
C 632.03 550.13 633.05 538.24 635.00 526.00
C 622.21 553.66 599.30 579.08 577.25 601.25 C 555.20 623.42 532.34 647.62 507.00 665.00
C 497.72 675.34 494.60 689.64 487.70 701.69 C 480.79 713.75 476.84 729.90 472.00 743.00
C 476.84 734.85 484.05 725.60 490.00 719.00
C 498.30 734.27 510.92 750.15 528.00 756.00
C 511.48 764.76 497.18 779.58 488.00 795.00
C 483.21 784.28 476.28 772.42 466.00 766.00
C 461.34 789.72 456.57 814.35 453.00 838.00
C 438.46 804.77 429.21 769.53 430.00 732.00
C 423.94 738.43 416.62 743.09 410.30 749.30 C 403.99 755.52 397.57 761.81 391.25 768.25 C 384.93 774.68 378.66 780.82 372.75 787.75 C 366.85 794.68 361.73 801.70 356.25 809.25 C 350.77 816.79 346.74 824.63 342.23 833.23 C 337.72 841.83 335.20 852.82 333.67 862.67 C 332.14 872.52 333.74 886.01 336.98 895.02 C 340.21 904.04 345.00 912.08 350.75 919.25 C 356.51 926.41 361.01 933.78 368.75 939.25 C 376.49 944.72 385.48 956.18 374.77 951.23 C 364.06 946.28 361.26 940.99 352.75 935.25 C 344.24 929.50 339.39 924.59 332.25 917.75 C 325.11 910.92 320.56 905.76 315.08 897.92 C 309.60 890.08 304.90 882.95 301.23 873.77 C 297.56 864.59 294.83 853.34 294.02 842.98 C 293.21 832.61 289.44 822.91 286.02 812.98 C 282.61 803.04 280.60 792.70 279.00 782.00 C 277.40 771.30 276.46 757.16 277.00 746.00 C 277.54 734.84 279.59 724.12 281.93 713.93 C 284.26 703.74 287.08 694.15 290.92 684.92 C 294.77 675.70 298.38 667.39 302.92 658.92 C 307.47 650.46 311.84 642.68 316.77 634.77 C 321.70 626.86 327.05 619.81 332.25 612.25 C 337.46 604.70 342.97 597.84 348.75 590.75 C 354.53 583.66 359.25 576.18 366.00 570.00
C 370.06 560.03 367.07 545.10 370.93 534.93 C 374.78 524.75 375.47 513.55 379.78 503.78 C 384.09 494.00 386.03 484.22 390.93 474.93 C 395.82 465.63 399.81 457.02 405.00 448.00
C 431.19 402.48 463.33 359.35 482.00 310.00
C 493.79 278.83 505.85 240.04 501.00 206.00 C 496.15 171.96 474.93 149.35 444.00 138.00
C 461.28 133.04 485.83 137.08 501.69 145.31 C 517.56 153.53 527.38 164.34 536.25 179.75 C 545.13 195.15 550.19 216.02 552.00 234.00
M 161.00 878.00 
C 171.31 875.97 183.24 885.93 193.23 887.77 C 203.22 889.61 214.14 895.61 223.69 899.31 C 233.25 903.00 242.80 908.58 252.08 912.92 C 261.35 917.27 269.59 923.56 278.25 928.75 C 286.90 933.95 294.37 940.42 302.25 946.75 C 310.12 953.08 317.59 959.34 324.25 966.75 C 330.92 974.15 338.61 980.44 344.75 988.25 C 350.89 996.05 356.79 1004.21 362.77 1012.23 C 368.75 1020.25 374.17 1028.68 380.25 1036.75 C 386.34 1044.81 391.34 1053.03 398.30 1060.70 C 405.26 1068.36 411.53 1074.74 420.25 1080.75 C 428.96 1086.77 441.14 1090.45 452.00 1092.00 C 462.86 1093.54 478.86 1092.72 489.02 1089.02 C 499.19 1085.33 507.79 1080.34 516.08 1074.08 C 524.37 1067.82 530.55 1060.86 537.25 1053.25 C 543.95 1045.63 549.75 1037.78 555.75 1029.75 C 561.76 1021.73 567.47 1013.41 573.30 1005.30 C 579.14 997.20 585.53 989.59 591.75 981.75 C 597.97 973.91 604.10 966.37 610.92 958.92 C 617.73 951.47 624.77 945.06 632.25 938.25 C 639.73 931.44 647.55 925.84 655.75 919.75 C 663.94 913.65 673.02 909.22 682.08 904.08 C 691.13 898.93 700.59 894.14 710.68 890.68 C 720.77 887.22 732.05 881.13 743.00 880.00
C 743.40 879.96 744.94 878.13 746.00 879.00
C 745.33 880.20 744.36 881.58 743.00 882.00
C 739.83 888.50 727.78 891.46 722.75 897.75 C 717.72 904.05 708.41 908.31 702.75 914.75 C 697.10 921.19 690.45 927.32 685.08 934.08 C 679.71 940.84 673.22 947.13 668.25 954.25 C 663.27 961.36 658.00 968.89 653.23 976.23 C 648.46 983.57 643.79 990.67 639.23 998.23 C 634.67 1005.79 630.05 1013.76 625.25 1021.25 C 620.44 1028.74 616.40 1036.94 611.23 1044.23 C 606.06 1051.52 601.44 1058.76 595.75 1065.75 C 590.05 1072.73 584.65 1078.83 577.92 1084.92 C 571.19 1091.00 564.97 1096.52 556.92 1100.92 C 548.88 1105.33 542.11 1109.66 532.92 1112.92 C 523.74 1116.19 513.61 1118.69 503.33 1120.33 C 493.05 1121.97 480.15 1123.41 469.00 1123.00 C 457.85 1122.59 443.56 1123.47 433.00 1122.00 C 422.44 1120.53 411.88 1118.43 402.32 1115.68 C 392.77 1112.93 384.60 1109.06 376.31 1104.70 C 368.01 1100.33 362.46 1095.25 355.75 1089.25 C 349.04 1083.24 343.22 1077.36 337.75 1070.25 C 332.28 1063.14 327.31 1056.07 322.25 1048.75 C 317.18 1041.44 312.79 1033.57 307.70 1026.30 C 302.61 1019.04 297.81 1011.46 292.70 1004.30 C 287.58 997.15 282.43 989.95 276.75 983.25 C 271.08 976.55 266.78 969.67 260.70 963.30 C 254.61 956.94 248.79 950.63 242.75 944.25 C 236.72 937.87 229.73 932.65 223.30 926.70 C 216.88 920.75 210.11 915.17 203.25 909.75 C 196.38 904.34 188.97 899.25 181.77 894.23 C 174.57 889.21 166.90 884.12 160.00 879.00
C 158.84 878.14 155.33 878.72 156.00 876.00
C 157.60 876.56 160.03 876.50 161.00 878.00
M 778.00 1065.00 
C 785.04 1066.13 791.33 1069.70 798.00 1072.00
C 789.40 1084.36 775.23 1061.87 765.00 1074.00
C 765.76 1080.18 772.05 1084.31 774.00 1090.00
C 771.72 1090.55 770.41 1092.99 768.00 1093.00
C 761.95 1081.14 752.04 1070.86 746.00 1059.00
C 754.65 1055.77 758.50 1048.22 768.03 1046.03 C 777.55 1043.83 785.98 1057.51 778.00 1065.00
M 146.00 1050.00 
C 143.85 1059.86 123.14 1076.85 136.75 1085.25 C 150.35 1093.66 156.85 1067.83 162.00 1060.00
C 173.35 1063.20 161.94 1071.89 159.08 1080.08 C 156.21 1088.26 146.24 1096.02 136.93 1092.07 C 127.62 1088.13 122.97 1079.17 127.32 1070.32 C 131.68 1061.47 136.43 1055.86 140.00 1047.00
C 142.37 1047.03 143.72 1049.50 146.00 1050.00
M 762.00 1098.00 
C 753.88 1103.22 751.40 1091.46 747.23 1085.77 C 743.06 1080.09 738.30 1072.25 735.00 1066.00
C 743.12 1060.78 745.60 1072.54 749.77 1078.23 C 753.94 1083.91 758.70 1091.75 762.00 1098.00
M 179.00 1068.00 
C 180.94 1079.50 180.68 1092.23 184.00 1103.00
C 186.63 1094.11 193.37 1086.91 196.00 1078.00
C 207.13 1079.19 197.09 1089.17 194.23 1095.23 C 191.37 1101.29 187.15 1109.77 184.00 1116.00
C 175.15 1115.38 178.28 1105.60 176.67 1099.33 C 175.06 1093.06 176.54 1084.37 173.00 1079.00
C 171.27 1084.16 168.44 1089.14 166.08 1094.08 C 163.71 1099.01 161.44 1106.81 155.00 1102.00
C 160.66 1089.80 167.59 1078.17 173.00 1066.00
C 175.25 1065.86 176.71 1068.16 179.00 1068.00
M 734.00 1075.00 
C 730.22 1075.56 727.63 1078.86 724.00 1080.00
C 728.57 1090.74 736.32 1100.31 741.00 1111.00
C 733.58 1116.05 731.71 1105.97 728.08 1100.92 C 724.46 1095.87 721.76 1089.07 718.00 1084.00
C 713.70 1085.50 710.38 1088.97 706.00 1090.00
C 701.67 1083.59 710.09 1081.86 714.70 1078.70 C 719.30 1075.53 726.14 1073.12 730.00 1069.00
C 732.96 1068.88 734.10 1072.57 734.00 1075.00
M 198.00 1122.00 
C 186.56 1121.44 196.25 1111.00 198.77 1104.77 C 201.29 1098.54 205.59 1090.48 208.00 1084.00
C 218.83 1084.97 209.93 1095.14 207.23 1101.23 C 204.53 1107.32 200.23 1115.51 198.00 1122.00
M 220.00 1125.00 
C 225.57 1121.06 229.46 1115.07 234.75 1110.75 C 240.04 1106.43 243.51 1096.64 251.00 1102.00
C 241.66 1112.83 230.29 1122.22 221.00 1133.00
C 211.30 1131.84 215.51 1121.41 215.93 1113.93 C 216.35 1106.44 215.46 1095.50 217.00 1088.00
C 225.97 1088.36 222.05 1097.56 222.00 1104.00 C 221.95 1110.44 220.85 1118.57 220.00 1125.00
M 702.00 1100.00 
C 699.40 1088.05 678.81 1103.26 687.25 1107.75 C 695.70 1112.24 708.07 1098.86 714.90 1109.10 C 721.73 1119.34 713.00 1125.82 705.31 1130.31 C 697.61 1134.79 680.39 1126.64 692.00 1121.00
C 693.38 1128.56 714.55 1126.20 711.60 1116.26 C 708.64 1106.31 691.55 1118.85 683.93 1113.07 C 676.30 1107.30 680.38 1096.89 688.23 1092.23 C 696.08 1087.57 713.63 1093.25 702.00 1100.00
M 280.00 1113.00 
C 278.11 1125.33 263.72 1110.60 256.00 1111.00
C 247.00 1123.99 264.84 1124.20 273.00 1129.00
C 269.47 1139.11 257.41 1126.79 250.00 1126.00
C 249.50 1130.22 247.25 1133.95 246.00 1138.00
C 253.65 1141.08 256.31 1140.61 264.22 1144.78 C 272.14 1148.94 261.96 1152.37 255.98 1148.02 C 249.99 1143.68 244.20 1144.24 238.00 1141.00
C 242.44 1128.23 248.37 1115.99 252.00 1103.00
C 261.47 1105.84 270.34 1110.72 280.00 1113.00
M 657.00 1152.00 
C 655.51 1137.55 655.20 1122.79 655.00 1108.00
C 667.69 1105.08 674.36 1123.89 684.25 1129.75 C 694.14 1135.62 688.55 1142.29 682.25 1136.75 C 675.95 1131.21 673.18 1130.90 665.31 1135.31 C 657.43 1139.71 667.92 1151.03 657.00 1152.00
M 640.00 1115.00 
C 644.26 1128.03 650.25 1140.53 653.00 1154.00
C 640.16 1155.29 631.24 1140.48 620.00 1135.00
C 622.16 1144.21 626.52 1152.82 629.00 1162.00
C 620.52 1167.04 620.68 1154.57 617.69 1148.31 C 614.71 1142.04 612.79 1132.61 610.00 1126.00
C 616.70 1121.28 622.03 1129.10 627.70 1132.30 C 633.37 1135.50 637.87 1141.81 644.00 1144.00
C 642.91 1135.00 629.17 1119.95 640.00 1115.00
M 300.00 1144.00 
C 303.52 1150.50 305.55 1157.56 306.00 1165.00
C 303.76 1164.01 301.54 1162.98 299.00 1163.00
C 297.28 1153.56 295.76 1140.66 284.00 1139.00
C 282.16 1144.62 279.35 1149.96 279.00 1156.00
C 268.71 1154.92 275.51 1144.99 277.32 1138.32 C 279.14 1131.66 283.09 1123.17 284.00 1116.00
C 292.69 1118.42 302.74 1118.73 310.23 1124.77 C 317.72 1130.81 309.77 1146.50 300.00 1144.00
M 346.00 1146.00 
C 337.64 1145.70 339.93 1132.92 329.00 1135.00 C 318.07 1137.08 326.08 1144.78 332.75 1147.25 C 339.41 1149.73 345.88 1157.29 341.69 1164.69 C 337.51 1172.10 328.98 1171.80 321.78 1169.22 C 314.57 1166.65 309.22 1159.78 312.00 1152.00
C 321.33 1153.00 316.14 1163.41 327.07 1164.93 C 338.01 1166.44 338.01 1156.95 330.77 1153.23 C 323.53 1149.51 317.11 1147.70 317.00 1139.00 C 316.89 1130.29 327.21 1127.86 334.07 1129.93 C 340.93 1132.00 348.64 1136.91 346.00 1146.00
M 595.00 1130.00 
C 619.41 1130.81 619.79 1173.33 594.00 1172.00 C 568.20 1170.67 568.81 1129.13 595.00 1130.00
M 353.00 1176.00 
C 342.84 1176.30 349.35 1164.66 350.00 1158.00 C 350.64 1151.34 354.54 1142.97 355.00 1136.00
C 365.17 1135.28 358.59 1147.41 358.00 1154.00 C 357.41 1160.59 353.13 1169.01 353.00 1176.00
M 396.00 1149.00 
C 386.99 1144.94 380.86 1147.58 381.00 1157.00 C 381.15 1166.43 376.59 1171.75 377.00 1181.00
C 367.51 1180.97 372.29 1172.40 372.98 1165.98 C 373.66 1159.56 376.05 1151.78 376.00 1145.00
C 371.75 1145.64 368.27 1143.36 364.00 1144.00
C 362.37 1134.98 374.50 1138.86 380.00 1140.00 C 385.50 1141.14 398.07 1140.74 396.00 1149.00
M 569.00 1178.00 
C 566.63 1168.87 566.90 1158.34 563.00 1150.00
C 562.72 1160.26 559.68 1169.82 559.00 1180.00
C 551.85 1183.47 550.01 1174.83 547.08 1169.92 C 544.15 1165.00 540.88 1159.40 539.00 1154.00
C 537.43 1158.75 540.63 1165.60 540.99 1171.01 C 541.36 1176.42 545.98 1184.79 537.00 1184.00
C 534.77 1170.66 532.23 1157.37 530.00 1144.00
C 544.98 1139.97 547.23 1162.46 554.00 1172.00
C 555.37 1166.40 559.11 1157.31 558.00 1151.00 C 556.89 1144.69 563.94 1133.44 568.29 1139.71 C 572.65 1145.97 569.77 1154.70 572.00 1161.00 C 574.22 1167.30 577.92 1178.50 569.00 1178.00
M 404.00 1150.00 
C 404.72 1153.94 402.51 1157.10 403.00 1161.00
C 409.85 1163.32 425.38 1158.23 424.00 1169.00
C 416.86 1167.34 409.10 1167.81 402.00 1166.00
C 402.72 1170.61 400.84 1174.51 401.00 1179.00
C 409.15 1179.06 416.84 1180.94 425.00 1181.00
C 426.23 1189.26 417.52 1186.28 412.00 1186.00 C 406.48 1185.72 399.94 1183.26 394.00 1184.00
C 395.30 1170.67 397.60 1157.57 398.00 1144.00
C 404.74 1142.00 410.75 1147.32 417.22 1145.78 C 423.69 1144.24 432.03 1150.17 423.99 1151.99 C 415.95 1153.81 411.77 1148.56 404.00 1150.00
M 513.00 1152.00 
C 505.10 1151.39 497.94 1153.72 490.00 1153.00
C 490.00 1156.67 490.00 1160.33 490.00 1164.00
C 497.61 1164.76 504.49 1162.69 512.00 1163.00
C 513.58 1173.91 497.60 1167.03 491.00 1170.00
C 491.00 1174.00 491.00 1178.00 491.00 1182.00
C 499.57 1182.62 507.39 1180.28 516.00 1181.00
C 513.88 1191.78 507.14 1184.00 496.93 1187.93 C 486.71 1191.86 483.48 1181.97 485.00 1173.00 C 486.52 1164.03 481.55 1156.94 483.00 1148.00
C 488.85 1148.42 495.25 1146.65 501.00 1147.00 C 506.75 1147.35 513.52 1143.34 513.00 1152.00
M 446.00 1188.00 
C 446.00 1174.66 446.00 1161.34 446.00 1148.00
C 463.06 1145.97 478.96 1148.31 479.00 1168.00 C 479.04 1187.69 463.50 1190.43 446.00 1188.00 Z"/>
</g>
<g fill="None" fill-opacity="0.0" stroke="#EE5D01" stroke-opacity="0.96" stroke-width="0.3"><path d="
M 482.00 310.00 
C 484.02 315.46 498.56 310.05 503.00 312.00
C 503.92 295.12 504.04 274.27 517.75 263.75 C 531.46 253.24 539.53 244.87 552.00 234.00
C 550.19 216.02 545.13 195.15 536.25 179.75 C 527.38 164.34 517.56 153.53 501.69 145.31 C 485.83 137.08 461.28 133.04 444.00 138.00
C 474.93 149.35 496.15 171.96 501.00 206.00 C 505.85 240.04 493.79 278.83 482.00 310.00 Z"/>
</g>
<g fill="None" fill-opacity="0.0" stroke="#F6F6F8" stroke-opacity="0.89" stroke-width="0.3"><path d="
M 552.00 234.00 
C 539.53 244.87 531.46 253.24 517.75 263.75 C 504.04 274.27 503.92 295.12 503.00 312.00
C 502.18 327.05 501.11 346.85 503.93 361.07 C 506.75 375.29 516.64 382.10 524.00 394.00
C 525.92 397.11 528.47 399.71 530.00 403.00
C 523.74 409.15 516.41 414.10 511.00 421.00
C 508.82 423.55 506.34 425.75 504.00 428.00
C 500.82 431.87 496.98 434.86 493.00 438.00
C 470.75 458.57 450.64 481.45 428.25 502.25 C 405.86 523.05 388.15 549.72 366.00 570.00
C 359.25 576.18 354.53 583.66 348.75 590.75 C 342.97 597.84 337.46 604.70 332.25 612.25 C 327.05 619.81 321.70 626.86 316.77 634.77 C 311.84 642.68 307.47 650.46 302.92 658.92 C 298.38 667.39 294.77 675.70 290.92 684.92 C 287.08 694.15 284.26 703.74 281.93 713.93 C 279.59 724.12 277.54 734.84 277.00 746.00 C 276.46 757.16 277.40 771.30 279.00 782.00 C 280.60 792.70 282.61 803.04 286.02 812.98 C 289.44 822.91 293.21 832.61 294.02 842.98 C 294.83 853.34 297.56 864.59 301.23 873.77 C 304.90 882.95 309.60 890.08 315.08 897.92 C 320.56 905.76 325.11 910.92 332.25 917.75 C 339.39 924.59 344.24 929.50 352.75 935.25 C 361.26 940.99 364.06 946.28 374.77 951.23 C 385.48 956.18 376.49 944.72 368.75 939.25 C 361.01 933.78 356.51 926.41 350.75 919.25 C 345.00 912.08 340.21 904.04 336.98 895.02 C 333.74 886.01 332.14 872.52 333.67 862.67 C 335.20 852.82 337.72 841.83 342.23 833.23 C 346.74 824.63 350.77 816.79 356.25 809.25 C 361.73 801.70 366.85 794.68 372.75 787.75 C 378.66 780.82 384.93 774.68 391.25 768.25 C 397.57 761.81 403.99 755.52 410.30 749.30 C 416.62 743.09 423.94 738.43 430.00 732.00
C 441.08 720.25 454.73 708.39 467.75 697.75 C 480.78 687.11 493.15 674.50 507.00 665.00
C 532.34 647.62 555.20 623.42 577.25 601.25 C 599.30 579.08 622.21 553.66 635.00 526.00
C 645.60 503.08 652.51 478.93 659.00 455.00
C 664.39 425.70 663.41 394.64 660.00 365.00
C 651.44 366.04 651.33 379.32 647.77 386.77 C 644.21 394.22 640.49 402.31 636.77 409.77 C 633.06 417.23 627.56 423.29 623.00 430.00
C 605.41 455.91 573.68 467.15 543.00 467.00
C 567.11 440.26 593.95 414.27 617.00 387.00
C 629.40 374.72 636.74 361.46 646.70 346.70 C 656.65 331.93 663.45 315.30 667.00 297.00 C 670.55 278.70 666.06 247.38 667.00 229.00 C 667.94 210.62 663.67 180.83 642.67 184.67 C 621.67 188.52 609.95 195.88 593.70 205.70 C 577.44 215.51 565.92 221.87 552.00 234.00
M 663.00 225.00 
C 663.17 226.75 663.95 229.60 664.00 232.00
C 664.62 262.76 666.25 304.24 651.70 329.69 C 637.14 355.15 623.92 373.73 605.75 394.75 C 587.58 415.77 571.48 432.28 552.75 451.75 C 534.03 471.22 515.48 487.92 497.25 507.25 C 479.02 526.58 459.10 542.98 442.00 563.00
C 439.84 565.53 437.28 567.72 435.00 570.00
C 404.73 605.42 373.71 633.41 348.25 672.25 C 322.78 711.09 294.00 758.21 294.00 807.00
C 294.00 813.00 294.00 819.00 294.00 825.00
C 292.80 823.89 292.34 821.71 292.00 820.00
C 286.48 802.98 281.00 784.41 281.00 766.00
C 280.42 760.02 280.43 752.91 281.00 747.00
C 281.00 734.06 284.14 719.28 287.32 707.32 C 290.51 695.36 295.13 683.89 299.93 672.93 C 304.72 661.96 310.79 652.64 316.75 642.75 C 322.72 632.87 328.56 623.44 335.30 614.30 C 342.05 605.16 348.51 596.37 355.75 587.75 C 363.00 579.14 369.50 570.42 377.25 562.25 C 385.00 554.08 391.63 545.41 399.25 537.25 C 406.87 529.09 414.49 521.27 422.25 513.25 C 430.01 505.23 438.01 497.80 445.75 489.75 C 453.49 481.70 461.59 474.46 469.25 466.25 C 476.91 458.03 485.26 451.01 493.25 443.25 C 501.24 435.48 509.19 428.03 517.25 420.25 C 525.31 412.47 537.93 405.50 530.08 395.92 C 522.23 386.33 516.04 379.55 509.75 369.25 C 503.46 358.95 504.75 339.45 505.00 327.00
C 505.05 324.59 505.84 321.70 506.00 320.00
C 506.27 306.29 505.83 284.08 512.75 272.75 C 519.68 261.42 532.27 256.60 541.70 247.70 C 551.12 238.80 561.72 231.46 572.75 223.75 C 583.77 216.03 593.08 209.46 606.08 203.08 C 619.08 196.70 628.59 190.15 645.01 188.01 C 661.43 185.86 662.75 212.28 663.00 225.00
M 404.00 750.00 
C 396.42 757.59 388.54 765.46 381.00 773.00
C 358.40 799.45 330.00 829.44 330.00 866.00
C 330.00 870.00 329.92 874.00 330.00 878.00
C 330.45 900.46 344.14 913.16 355.00 931.00
C 356.26 932.26 358.48 933.09 359.00 935.00
C 357.72 935.27 356.28 934.23 356.00 933.00
C 350.18 929.51 345.16 924.41 340.00 920.00
C 336.40 916.92 333.03 913.55 330.00 910.00
C 306.18 882.13 289.79 844.56 301.98 808.98 C 314.16 773.40 332.04 752.04 356.00 724.00
C 358.77 720.76 362.06 717.94 365.00 715.00
C 369.84 709.33 375.38 703.80 381.00 699.00
C 383.00 697.00 384.87 694.82 387.00 693.00
C 395.12 686.06 402.49 678.30 410.75 671.75 C 419.02 665.20 426.46 657.22 434.75 650.75 C 443.04 644.28 451.31 637.18 459.25 630.25 C 467.18 623.31 476.56 617.25 484.23 610.23 C 491.90 603.21 501.68 596.96 508.75 589.75 C 515.83 582.54 527.23 576.50 533.08 569.08 C 538.93 561.66 555.73 556.29 553.07 545.93 C 550.42 535.57 542.74 523.38 543.00 511.00 C 543.27 498.62 539.90 482.12 545.00 470.00
C 601.24 473.38 643.39 424.02 656.00 374.00
C 665.19 416.15 655.02 471.56 638.69 508.69 C 622.37 545.83 599.64 572.64 572.25 601.25 C 544.85 629.86 517.60 650.77 488.75 675.75 C 459.90 700.74 432.26 724.36 404.00 750.00
M 450.00 634.00 
C 439.37 640.58 429.67 649.88 420.25 658.25 C 410.83 666.61 399.47 674.65 391.00 684.00
C 389.35 685.82 388.75 686.59 387.00 688.00
C 367.20 703.95 351.45 723.05 335.25 742.25 C 319.04 761.44 303.11 787.23 298.00 812.00
C 297.64 813.73 298.59 816.53 296.00 817.00
C 296.56 814.48 294.81 810.70 297.00 809.00
C 301.01 788.22 303.22 763.93 311.93 744.93 C 320.63 725.93 329.09 710.68 339.25 693.25 C 349.42 675.83 362.17 663.44 373.00 647.00
C 381.59 633.96 391.98 620.00 404.00 609.00
C 409.26 604.18 413.12 598.40 418.25 593.25 C 423.38 588.09 428.21 582.50 433.25 577.25 C 438.28 572.00 443.86 566.88 448.30 561.30 C 452.75 555.73 458.91 550.98 463.75 545.75 C 468.59 540.53 473.73 535.77 478.75 530.75 C 483.77 525.73 489.11 520.04 494.25 515.25 C 499.39 510.45 504.52 504.07 509.75 499.75 C 514.99 495.43 519.87 487.53 525.25 484.25 C 530.62 480.96 535.08 469.55 541.00 469.00
C 540.87 469.08 539.52 481.66 539.00 487.00 C 538.48 492.35 538.81 505.55 539.33 511.67 C 539.85 517.79 542.29 525.02 543.93 531.07 C 545.56 537.13 548.11 543.30 551.00 549.00
C 517.90 578.37 484.29 606.64 450.00 634.00 Z"/>
</g>
<g fill="None" fill-opacity="0.0" stroke="#04248A" stroke-opacity="1.00" stroke-width="0.3"><path d="
M 506.00 320.00 
C 505.95 322.41 505.16 325.30 505.00 327.00
C 504.75 339.45 503.46 358.95 509.75 369.25 C 516.04 379.55 522.23 386.33 530.08 395.92 C 537.93 405.50 525.31 412.47 517.25 420.25 C 509.19 428.03 501.24 435.48 493.25 443.25 C 485.26 451.01 476.91 458.03 469.25 466.25 C 461.59 474.46 453.49 481.70 445.75 489.75 C 438.01 497.80 430.01 505.23 422.25 513.25 C 414.49 521.27 406.87 529.09 399.25 537.25 C 391.63 545.41 385.00 554.08 377.25 562.25 C 369.50 570.42 363.00 579.14 355.75 587.75 C 348.51 596.37 342.05 605.16 335.30 614.30 C 328.56 623.44 322.72 632.87 316.75 642.75 C 310.79 652.64 304.72 661.96 299.93 672.93 C 295.13 683.89 290.51 695.36 287.32 707.32 C 284.14 719.28 281.00 734.06 281.00 747.00
C 281.00 753.33 281.00 759.67 281.00 766.00
C 281.00 784.41 286.48 802.98 292.00 820.00
C 291.87 816.77 293.69 810.20 294.00 807.00
C 294.00 758.21 322.78 711.09 348.25 672.25 C 373.71 633.41 404.73 605.42 435.00 570.00
C 437.16 567.47 439.72 565.28 442.00 563.00
C 459.10 542.98 479.02 526.58 497.25 507.25 C 515.48 487.92 534.03 471.22 552.75 451.75 C 571.48 432.28 587.58 415.77 605.75 394.75 C 623.92 373.73 637.14 355.15 651.70 329.69 C 666.25 304.24 664.62 262.76 664.00 232.00
C 663.83 230.25 663.05 227.40 663.00 225.00
C 662.75 212.28 661.43 185.86 645.01 188.01 C 628.59 190.15 619.08 196.70 606.08 203.08 C 593.08 209.46 583.77 216.03 572.75 223.75 C 561.72 231.46 551.12 238.80 541.70 247.70 C 532.27 256.60 519.68 261.42 512.75 272.75 C 505.83 284.08 506.27 306.29 506.00 320.00
M 546.00 385.00 
C 546.14 381.39 546.20 377.61 546.00 374.00
C 544.87 353.27 524.13 339.71 516.00 322.00
C 518.62 320.11 521.24 317.65 523.00 315.00
C 526.66 310.71 530.76 306.62 535.00 303.00
C 568.03 274.77 605.05 252.60 648.00 246.00
C 628.71 303.53 589.87 352.31 545.00 395.00
C 544.79 391.54 546.70 388.60 546.00 385.00 Z"/>
</g>
<g fill="None" fill-opacity="0.0" stroke="#6B7CB8" stroke-opacity="1.00" stroke-width="0.3"><path d="
M 664.00 232.00 
C 663.95 229.60 663.17 226.75 663.00 225.00
C 663.05 227.40 663.83 230.25 664.00 232.00 Z"/>
</g>
<g fill="None" fill-opacity="0.0" stroke="#F5F5F8" stroke-opacity="0.90" stroke-width="0.3"><path d="
M 535.00 303.00 
C 531.08 306.92 526.87 311.13 523.00 315.00
C 521.24 317.65 518.62 320.11 516.00 322.00
C 524.13 339.71 544.87 353.27 546.00 374.00
C 546.60 377.72 546.52 381.36 546.00 385.00
C 546.70 388.60 544.79 391.54 545.00 395.00
C 589.87 352.31 628.71 303.53 648.00 246.00
C 605.05 252.60 568.03 274.77 535.00 303.00
M 600.00 327.00 
C 591.05 341.30 579.40 357.55 566.00 369.00
C 560.14 374.01 555.80 380.11 550.00 385.00
C 551.50 372.00 548.23 359.45 540.00 350.00
C 533.40 341.55 526.81 332.24 520.00 324.00
C 530.91 310.69 544.07 296.52 559.00 289.00
C 584.53 272.19 611.18 256.08 642.00 251.00
C 632.45 278.23 617.99 304.33 600.00 327.00 Z"/>
</g>
<g fill="None" fill-opacity="0.0" stroke="#000000" stroke-opacity="0.00" stroke-width="0.3"><path d="
M 559.00 289.00 
C 565.97 289.27 577.63 299.37 582.75 304.25 C 587.87 309.13 599.80 319.84 600.00 327.00
C 617.99 304.33 632.45 278.23 642.00 251.00
C 611.18 256.08 584.53 272.19 559.00 289.00 Z"/>
</g>
<g fill="None" fill-opacity="0.0" stroke="#EF7304" stroke-opacity="0.97" stroke-width="0.3"><path d="
M 540.00 350.00 
C 539.50 344.54 544.61 338.76 544.93 332.93 C 545.25 327.09 547.90 319.80 549.00 314.00
C 561.17 329.35 566.58 348.98 566.00 369.00
C 579.40 357.55 591.05 341.30 600.00 327.00
C 599.80 319.84 587.87 309.13 582.75 304.25 C 577.63 299.37 565.97 289.27 559.00 289.00
C 544.07 296.52 530.91 310.69 520.00 324.00
C 526.81 332.24 533.40 341.55 540.00 350.00 Z"/>
</g>
<g fill="None" fill-opacity="0.0" stroke="#6D7EB9" stroke-opacity="1.00" stroke-width="0.3"><path d="
M 523.00 315.00 
C 526.87 311.13 531.08 306.92 535.00 303.00
C 530.76 306.62 526.66 310.71 523.00 315.00 Z"/>
</g>
<g fill="None" fill-opacity="0.0" stroke="#EF7F01" stroke-opacity="0.98" stroke-width="0.3"><path d="
M 405.00 448.00 
C 411.68 445.08 421.59 449.22 429.00 448.00 C 436.41 446.78 446.44 448.49 454.00 448.00 C 461.56 447.51 470.70 448.01 478.00 448.00 C 485.30 447.99 487.76 442.13 493.00 438.00
C 496.98 434.86 500.82 431.87 504.00 428.00
C 504.75 427.09 505.35 425.93 506.00 425.00
C 508.99 420.68 513.06 414.64 514.92 409.92 C 516.79 405.20 523.91 398.63 524.00 394.00
C 516.64 382.10 506.75 375.29 503.93 361.07 C 501.11 346.85 502.18 327.05 503.00 312.00
C 498.56 310.05 484.02 315.46 482.00 310.00
C 463.33 359.35 431.19 402.48 405.00 448.00 Z"/>
</g>
<g fill="None" fill-opacity="0.0" stroke="#000000" stroke-opacity="0.00" stroke-width="0.3"><path d="
M 540.00 350.00 
C 548.23 359.45 551.50 372.00 550.00 385.00
C 555.80 380.11 560.14 374.01 566.00 369.00
C 566.58 348.98 561.17 329.35 549.00 314.00
C 547.90 319.80 545.25 327.09 544.93 332.93 C 544.61 338.76 539.50 344.54 540.00 350.00 Z"/>
</g>
<g fill="None" fill-opacity="0.0" stroke="#8C9AC8" stroke-opacity="1.00" stroke-width="0.3"><path d="
M 505.00 327.00 
C 505.16 325.30 505.95 322.41 506.00 320.00
C 505.84 321.70 505.05 324.59 505.00 327.00 Z"/>
</g>
<g fill="None" fill-opacity="0.0" stroke="#7182BB" stroke-opacity="1.00" stroke-width="0.3"><path d="
M 546.00 385.00 
C 546.52 381.36 546.60 377.72 546.00 374.00
C 546.20 377.61 546.14 381.39 546.00 385.00 Z"/>
</g>
<g fill="None" fill-opacity="0.0" stroke="#042489" stroke-opacity="1.00" stroke-width="0.3"><path d="
M 387.00 693.00 
C 385.00 695.00 383.13 697.18 381.00 699.00
C 375.38 703.80 369.84 709.33 365.00 715.00
C 362.23 718.24 358.94 721.06 356.00 724.00
C 332.04 752.04 314.16 773.40 301.98 808.98 C 289.79 844.56 306.18 882.13 330.00 910.00
C 333.25 913.25 336.80 916.79 340.00 920.00
C 345.16 924.41 350.18 929.51 356.00 933.00
C 355.55 932.38 355.38 931.62 355.00 931.00
C 344.14 913.16 330.45 900.46 330.00 878.00
C 329.53 874.15 329.64 869.76 330.00 866.00
C 330.00 829.44 358.40 799.45 381.00 773.00
C 387.90 764.92 395.97 756.86 404.00 750.00
C 432.26 724.36 459.90 700.74 488.75 675.75 C 517.60 650.77 544.85 629.86 572.25 601.25 C 599.64 572.64 622.37 545.83 638.69 508.69 C 655.02 471.56 665.19 416.15 656.00 374.00
C 643.39 424.02 601.24 473.38 545.00 470.00
C 539.90 482.12 543.27 498.62 543.00 511.00 C 542.74 523.38 550.42 535.57 553.07 545.93 C 555.73 556.29 538.93 561.66 533.08 569.08 C 527.23 576.50 515.83 582.54 508.75 589.75 C 501.68 596.96 491.90 603.21 484.23 610.23 C 476.56 617.25 467.18 623.31 459.25 630.25 C 451.31 637.18 443.04 644.28 434.75 650.75 C 426.46 657.22 419.02 665.20 410.75 671.75 C 402.49 678.30 395.12 686.06 387.00 693.00 Z"/>
</g>
<g fill="None" fill-opacity="0.0" stroke="#F08809" stroke-opacity="0.99" stroke-width="0.3"><path d="
M 623.00 430.00 
C 620.73 430.54 619.23 428.48 617.00 429.00
C 617.64 421.98 617.08 414.96 618.00 408.00 C 618.92 401.04 614.96 393.72 617.00 387.00
C 593.95 414.27 567.11 440.26 543.00 467.00
C 573.68 467.15 605.41 455.91 623.00 430.00 Z"/>
</g>
<g fill="None" fill-opacity="0.0" stroke="#000000" stroke-opacity="0.00" stroke-width="0.3"><path d="
M 506.00 425.00 
C 507.35 423.53 509.63 422.37 511.00 421.00
C 516.41 414.10 523.74 409.15 530.00 403.00
C 528.47 399.71 525.92 397.11 524.00 394.00
C 523.91 398.63 516.79 405.20 514.92 409.92 C 513.06 414.64 508.99 420.68 506.00 425.00 Z"/>
</g>
<g fill="None" fill-opacity="0.0" stroke="#FFFFFF" stroke-opacity="0.22" stroke-width="0.3"><path d="
M 506.00 425.00 
C 505.35 425.93 504.75 427.09 504.00 428.00
C 506.34 425.75 508.82 423.55 511.00 421.00
C 509.63 422.37 507.35 423.53 506.00 425.00 Z"/>
</g>
<g fill="None" fill-opacity="0.0" stroke="#F09102" stroke-opacity="0.98" stroke-width="0.3"><path d="
M 405.00 448.00 
C 399.81 457.02 395.82 465.63 390.93 474.93 C 386.03 484.22 384.09 494.00 379.78 503.78 C 375.47 513.55 374.78 524.75 370.93 534.93 C 367.07 545.10 370.06 560.03 366.00 570.00
C 388.15 549.72 405.86 523.05 428.25 502.25 C 450.64 481.45 470.75 458.57 493.00 438.00
C 487.76 442.13 485.30 447.99 478.00 448.00 C 470.70 448.01 461.56 447.51 454.00 448.00 C 446.44 448.49 436.41 446.78 429.00 448.00 C 421.59 449.22 411.68 445.08 405.00 448.00 Z"/>
</g>
<g fill="None" fill-opacity="0.0" stroke="#F09702" stroke-opacity="0.98" stroke-width="0.3"><path d="
M 635.00 526.00 
C 633.05 538.24 632.03 550.13 629.00 562.00
C 631.25 565.40 643.62 562.50 648.00 563.00 C 652.38 563.50 663.62 563.59 668.00 563.00 C 672.38 562.41 684.48 565.57 687.00 562.00
C 687.00 523.93 684.85 483.85 659.00 455.00
C 652.51 478.93 645.60 503.08 635.00 526.00 Z"/>
</g>
<g fill="None" fill-opacity="0.0" stroke="#F19E07" stroke-opacity="0.97" stroke-width="0.3"><path d="
M 541.00 469.00 
C 536.00 471.98 536.09 483.31 532.08 488.08 C 528.06 492.84 526.19 500.87 522.23 506.23 C 518.27 511.59 515.92 519.46 512.08 525.08 C 508.23 530.69 505.05 536.53 501.23 542.23 C 497.41 547.93 493.96 554.38 490.08 560.08 C 486.20 565.78 483.11 571.49 479.23 577.23 C 475.35 582.97 472.51 589.87 468.70 595.70 C 464.88 601.52 462.92 608.31 459.08 614.08 C 455.23 619.85 454.31 628.76 450.00 634.00
C 484.29 606.64 517.90 578.37 551.00 549.00
C 548.11 543.30 545.56 537.13 543.93 531.07 C 542.29 525.02 539.85 517.79 539.33 511.67 C 538.81 505.55 538.48 492.35 539.00 487.00 C 539.52 481.66 540.87 469.08 541.00 469.00 Z"/>
</g>
<g fill="None" fill-opacity="0.0" stroke="#000000" stroke-opacity="0.00" stroke-width="0.3"><path d="
M 404.00 609.00 
C 398.65 620.05 400.42 633.55 396.22 645.22 C 392.02 656.89 394.48 672.06 391.00 684.00
C 399.47 674.65 410.83 666.61 420.25 658.25 C 429.67 649.88 439.37 640.58 450.00 634.00
C 454.31 628.76 455.23 619.85 459.08 614.08 C 462.92 608.31 464.88 601.52 468.70 595.70 C 472.51 589.87 475.35 582.97 479.23 577.23 C 483.11 571.49 486.20 565.78 490.08 560.08 C 493.96 554.38 497.41 547.93 501.23 542.23 C 505.05 536.53 508.23 530.69 512.08 525.08 C 515.92 519.46 518.27 511.59 522.23 506.23 C 526.19 500.87 528.06 492.84 532.08 488.08 C 536.09 483.31 536.00 471.98 541.00 469.00
C 535.08 469.55 530.62 480.96 525.25 484.25 C 519.87 487.53 514.99 495.43 509.75 499.75 C 504.52 504.07 499.39 510.45 494.25 515.25 C 489.11 520.04 483.77 525.73 478.75 530.75 C 473.73 535.77 468.59 540.53 463.75 545.75 C 458.91 550.98 452.75 555.73 448.30 561.30 C 443.86 566.88 438.28 572.00 433.25 577.25 C 428.21 582.50 423.38 588.09 418.25 593.25 C 413.12 598.40 409.26 604.18 404.00 609.00 Z"/>
</g>
<g fill="None" fill-opacity="0.0" stroke="#F1A800" stroke-opacity="0.98" stroke-width="0.3"><path d="
M 586.00 661.00 
C 586.95 662.88 596.19 660.16 600.00 661.00 C 603.81 661.84 612.49 660.45 617.00 661.00 C 621.51 661.55 628.39 660.39 633.00 661.00 C 637.61 661.61 645.87 659.97 650.00 661.00 C 654.14 662.03 663.70 658.40 666.00 662.00
C 678.03 631.34 687.00 596.14 687.00 562.00
C 684.48 565.57 672.38 562.41 668.00 563.00 C 663.62 563.59 652.38 563.50 648.00 563.00 C 643.62 562.50 631.25 565.40 629.00 562.00
C 620.39 595.71 603.53 630.53 586.00 661.00 Z"/>
</g>
<g fill="None" fill-opacity="0.0" stroke="#A0ACD1" stroke-opacity="1.00" stroke-width="0.3"><path d="
M 435.00 570.00 
C 437.28 567.72 439.84 565.53 442.00 563.00
C 439.72 565.28 437.16 567.47 435.00 570.00 Z"/>
</g>
<g fill="None" fill-opacity="0.0" stroke="#F2B008" stroke-opacity="0.93" stroke-width="0.3"><path d="
M 373.00 647.00 
C 372.91 660.40 385.34 674.49 387.00 688.00
C 388.75 686.59 389.35 685.82 391.00 684.00
C 394.48 672.06 392.02 656.89 396.22 645.22 C 400.42 633.55 398.65 620.05 404.00 609.00
C 391.98 620.00 381.59 633.96 373.00 647.00 Z"/>
</g>
<g fill="None" fill-opacity="0.0" stroke="#000000" stroke-opacity="0.00" stroke-width="0.3"><path d="
M 297.00 809.00 
C 297.02 810.40 297.87 811.24 298.00 812.00
C 303.11 787.23 319.04 761.44 335.25 742.25 C 351.45 723.05 367.20 703.95 387.00 688.00
C 385.34 674.49 372.91 660.40 373.00 647.00
C 362.17 663.44 349.42 675.83 339.25 693.25 C 329.09 710.68 320.63 725.93 311.93 744.93 C 303.22 763.93 301.01 788.22 297.00 809.00 Z"/>
</g>
<g fill="None" fill-opacity="0.0" stroke="#F2BA00" stroke-opacity="0.98" stroke-width="0.3"><path d="
M 523.00 770.00 
C 524.31 772.40 536.68 768.74 541.00 770.00 C 545.32 771.26 556.01 769.00 561.00 770.00 C 565.99 771.00 576.46 768.58 581.00 770.00 C 585.54 771.42 598.62 766.86 601.00 771.00
C 626.13 736.51 650.40 701.76 666.00 662.00
C 663.70 658.40 654.14 662.03 650.00 661.00 C 645.87 659.97 637.61 661.61 633.00 661.00 C 628.39 660.39 621.51 661.55 617.00 661.00 C 612.49 660.45 603.81 661.84 600.00 661.00 C 596.19 660.16 586.95 662.88 586.00 661.00
C 565.07 697.38 539.60 731.08 523.00 770.00 Z"/>
</g>
<g fill="None" fill-opacity="0.0" stroke="#F2C005" stroke-opacity="0.96" stroke-width="0.3"><path d="
M 430.00 732.00 
C 429.21 769.53 438.46 804.77 453.00 838.00
C 456.57 814.35 461.34 789.72 466.00 766.00
C 467.56 758.08 469.21 750.57 472.00 743.00
C 476.84 729.90 480.79 713.75 487.70 701.69 C 494.60 689.64 497.72 675.34 507.00 665.00
C 493.15 674.50 480.78 687.11 467.75 697.75 C 454.73 708.39 441.08 720.25 430.00 732.00 Z"/>
</g>
<g fill="None" fill-opacity="0.0" stroke="#8494C4" stroke-opacity="1.00" stroke-width="0.3"><path d="
M 381.00 699.00 
C 383.13 697.18 385.00 695.00 387.00 693.00
C 384.87 694.82 383.00 697.00 381.00 699.00 Z"/>
</g>
<g fill="None" fill-opacity="0.0" stroke="#798BBF" stroke-opacity="1.00" stroke-width="0.3"><path d="
M 356.00 724.00 
C 358.94 721.06 362.23 718.24 365.00 715.00
C 362.06 717.94 358.77 720.76 356.00 724.00 Z"/>
</g>
<g fill="None" fill-opacity="0.0" stroke="#042191" stroke-opacity="0.95" stroke-width="0.3"><path d="
M 472.00 743.00 
C 469.21 750.57 467.56 758.08 466.00 766.00
C 476.28 772.42 483.21 784.28 488.00 795.00
C 497.18 779.58 511.48 764.76 528.00 756.00
C 510.92 750.15 498.30 734.27 490.00 719.00
C 484.05 725.60 476.84 734.85 472.00 743.00 Z"/>
</g>
<g fill="None" fill-opacity="0.0" stroke="#9AA7CE" stroke-opacity="1.00" stroke-width="0.3"><path d="
M 281.00 766.00 
C 281.00 759.67 281.00 753.33 281.00 747.00
C 280.43 752.91 280.42 760.02 281.00 766.00 Z"/>
</g>
<g fill="None" fill-opacity="0.0" stroke="#6F82BA" stroke-opacity="1.00" stroke-width="0.3"><path d="
M 381.00 773.00 
C 388.54 765.46 396.42 757.59 404.00 750.00
C 395.97 756.86 387.90 764.92 381.00 773.00 Z"/>
</g>
<g fill="None" fill-opacity="0.0" stroke="#F3D200" stroke-opacity="0.97" stroke-width="0.3"><path d="
M 601.00 771.00 
C 598.62 766.86 585.54 771.42 581.00 770.00 C 576.46 768.58 565.99 771.00 561.00 770.00 C 556.01 769.00 545.32 771.26 541.00 770.00 C 536.68 768.74 524.31 772.40 523.00 770.00
C 490.84 834.29 492.51 915.81 522.00 981.00
C 527.08 962.61 528.46 938.00 533.07 919.07 C 537.69 900.15 542.30 880.67 549.22 863.22 C 556.15 845.78 563.18 830.23 572.70 814.70 C 582.21 799.17 590.50 785.41 601.00 771.00 Z"/>
</g>
<g fill="None" fill-opacity="0.0" stroke="#576EAF" stroke-opacity="1.00" stroke-width="0.3"><path d="
M 292.00 820.00 
C 292.34 821.71 292.80 823.89 294.00 825.00
C 294.00 819.00 294.00 813.00 294.00 807.00
C 293.69 810.20 291.87 816.77 292.00 820.00 Z"/>
</g>
<g fill="None" fill-opacity="0.0" stroke="#FFFFFF" stroke-opacity="0.69" stroke-width="0.3"><path d="
M 298.00 812.00 
C 297.87 811.24 297.02 810.40 297.00 809.00
C 294.81 810.70 296.56 814.48 296.00 817.00
C 298.59 816.53 297.64 813.73 298.00 812.00 Z"/>
</g>
<g fill="None" fill-opacity="0.0" stroke="#8A9AC7" stroke-opacity="1.00" stroke-width="0.3"><path d="
M 330.00 878.00 
C 329.92 874.00 330.00 870.00 330.00 866.00
C 329.64 869.76 329.53 874.15 330.00 878.00 Z"/>
</g>
<g fill="None" fill-opacity="0.0" stroke="#FFD30E" stroke-opacity="0.33" stroke-width="0.3"><path d="
M 160.00 879.00 
C 160.34 878.98 160.78 878.04 161.00 878.00
C 160.03 876.50 157.60 876.56 156.00 876.00
C 155.33 878.72 158.84 878.14 160.00 879.00 Z"/>
</g>
<g fill="None" fill-opacity="0.0" stroke="#FED50F" stroke-opacity="0.97" stroke-width="0.3"><path d="
M 160.00 879.00 
C 166.90 884.12 174.57 889.21 181.77 894.23 C 188.97 899.25 196.38 904.34 203.25 909.75 C 210.11 915.17 216.88 920.75 223.30 926.70 C 229.73 932.65 236.72 937.87 242.75 944.25 C 248.79 950.63 254.61 956.94 260.70 963.30 C 266.78 969.67 271.08 976.55 276.75 983.25 C 282.43 989.95 287.58 997.15 292.70 1004.30 C 297.81 1011.46 302.61 1019.04 307.70 1026.30 C 312.79 1033.57 317.18 1041.44 322.25 1048.75 C 327.31 1056.07 332.28 1063.14 337.75 1070.25 C 343.22 1077.36 349.04 1083.24 355.75 1089.25 C 362.46 1095.25 368.01 1100.33 376.31 1104.70 C 384.60 1109.06 392.77 1112.93 402.32 1115.68 C 411.88 1118.43 422.44 1120.53 433.00 1122.00 C 443.56 1123.47 457.85 1122.59 469.00 1123.00 C 480.15 1123.41 493.05 1121.97 503.33 1120.33 C 513.61 1118.69 523.74 1116.19 532.92 1112.92 C 542.11 1109.66 548.88 1105.33 556.92 1100.92 C 564.97 1096.52 571.19 1091.00 577.92 1084.92 C 584.65 1078.83 590.05 1072.73 595.75 1065.75 C 601.44 1058.76 606.06 1051.52 611.23 1044.23 C 616.40 1036.94 620.44 1028.74 625.25 1021.25 C 630.05 1013.76 634.67 1005.79 639.23 998.23 C 643.79 990.67 648.46 983.57 653.23 976.23 C 658.00 968.89 663.27 961.36 668.25 954.25 C 673.22 947.13 679.71 940.84 685.08 934.08 C 690.45 927.32 697.10 921.19 702.75 914.75 C 708.41 908.31 717.72 904.05 722.75 897.75 C 727.78 891.46 739.83 888.50 743.00 882.00
C 743.20 881.60 742.75 880.25 743.00 880.00
C 732.05 881.13 720.77 887.22 710.68 890.68 C 700.59 894.14 691.13 898.93 682.08 904.08 C 673.02 909.22 663.94 913.65 655.75 919.75 C 647.55 925.84 639.73 931.44 632.25 938.25 C 624.77 945.06 617.73 951.47 610.92 958.92 C 604.10 966.37 597.97 973.91 591.75 981.75 C 585.53 989.59 579.14 997.20 573.30 1005.30 C 567.47 1013.41 561.76 1021.73 555.75 1029.75 C 549.75 1037.78 543.95 1045.63 537.25 1053.25 C 530.55 1060.86 524.37 1067.82 516.08 1074.08 C 507.79 1080.34 499.19 1085.33 489.02 1089.02 C 478.86 1092.72 462.86 1093.54 452.00 1092.00 C 441.14 1090.45 428.96 1086.77 420.25 1080.75 C 411.53 1074.74 405.26 1068.36 398.30 1060.70 C 391.34 1053.03 386.34 1044.81 380.25 1036.75 C 374.17 1028.68 368.75 1020.25 362.77 1012.23 C 356.79 1004.21 350.89 996.05 344.75 988.25 C 338.61 980.44 330.92 974.15 324.25 966.75 C 317.59 959.34 310.12 953.08 302.25 946.75 C 294.37 940.42 286.90 933.95 278.25 928.75 C 269.59 923.56 261.35 917.27 252.08 912.92 C 242.80 908.58 233.25 903.00 223.69 899.31 C 214.14 895.61 203.22 889.61 193.23 887.77 C 183.24 885.93 171.31 875.97 161.00 878.00
C 160.78 878.04 160.34 878.98 160.00 879.00 Z"/>
</g>
<g fill="None" fill-opacity="0.0" stroke="#FFDB0C" stroke-opacity="0.27" stroke-width="0.3"><path d="
M 743.00 880.00 
C 742.75 880.25 743.20 881.60 743.00 882.00
C 744.36 881.58 745.33 880.20 746.00 879.00
C 744.94 878.13 743.40 879.96 743.00 880.00 Z"/>
</g>
<g fill="None" fill-opacity="0.0" stroke="#7588BD" stroke-opacity="1.00" stroke-width="0.3"><path d="
M 340.00 920.00 
C 336.80 916.79 333.25 913.25 330.00 910.00
C 333.03 913.55 336.40 916.92 340.00 920.00 Z"/>
</g>
<g fill="None" fill-opacity="0.0" stroke="#94A4CD" stroke-opacity="1.00" stroke-width="0.3"><path d="
M 356.00 933.00 
C 356.28 934.23 357.72 935.27 359.00 935.00
C 358.48 933.09 356.26 932.26 355.00 931.00
C 355.38 931.62 355.55 932.38 356.00 933.00 Z"/>
</g>
<g fill="None" fill-opacity="0.0" stroke="#04228A" stroke-opacity="0.80" stroke-width="0.3"><path d="
M 778.00 1065.00 
C 785.98 1057.51 777.55 1043.83 768.03 1046.03 C 758.50 1048.22 754.65 1055.77 746.00 1059.00
C 752.04 1070.86 761.95 1081.14 768.00 1093.00
C 770.41 1092.99 771.72 1090.55 774.00 1090.00
C 772.05 1084.31 765.76 1080.18 765.00 1074.00
C 775.23 1061.87 789.40 1084.36 798.00 1072.00
C 791.33 1069.70 785.04 1066.13 778.00 1065.00
M 760.00 1070.00 
C 759.44 1066.24 755.21 1063.96 755.00 1060.00
C 759.66 1057.32 770.03 1047.35 773.92 1055.08 C 777.80 1062.81 764.67 1067.22 760.00 1070.00 Z"/>
</g>
<g fill="None" fill-opacity="0.0" stroke="#04228B" stroke-opacity="0.80" stroke-width="0.3"><path d="
M 146.00 1050.00 
C 143.72 1049.50 142.37 1047.03 140.00 1047.00
C 136.43 1055.86 131.68 1061.47 127.32 1070.32 C 122.97 1079.17 127.62 1088.13 136.93 1092.07 C 146.24 1096.02 156.21 1088.26 159.08 1080.08 C 161.94 1071.89 173.35 1063.20 162.00 1060.00
C 156.85 1067.83 150.35 1093.66 136.75 1085.25 C 123.14 1076.85 143.85 1059.86 146.00 1050.00 Z"/>
</g>
<g fill="None" fill-opacity="0.0" stroke="#000000" stroke-opacity="0.00" stroke-width="0.3"><path d="
M 760.00 1070.00 
C 764.67 1067.22 777.80 1062.81 773.92 1055.08 C 770.03 1047.35 759.66 1057.32 755.00 1060.00
C 755.21 1063.96 759.44 1066.24 760.00 1070.00 Z"/>
</g>
<g fill="None" fill-opacity="0.0" stroke="#04228A" stroke-opacity="0.78" stroke-width="0.3"><path d="
M 762.00 1098.00 
C 758.70 1091.75 753.94 1083.91 749.77 1078.23 C 745.60 1072.54 743.12 1060.78 735.00 1066.00
C 738.30 1072.25 743.06 1080.09 747.23 1085.77 C 751.40 1091.46 753.88 1103.22 762.00 1098.00 Z"/>
</g>
<g fill="None" fill-opacity="0.0" stroke="#04228A" stroke-opacity="0.80" stroke-width="0.3"><path d="
M 179.00 1068.00 
C 176.71 1068.16 175.25 1065.86 173.00 1066.00
C 167.59 1078.17 160.66 1089.80 155.00 1102.00
C 161.44 1106.81 163.71 1099.01 166.08 1094.08 C 168.44 1089.14 171.27 1084.16 173.00 1079.00
C 176.54 1084.37 175.06 1093.06 176.67 1099.33 C 178.28 1105.60 175.15 1115.38 184.00 1116.00
C 187.15 1109.77 191.37 1101.29 194.23 1095.23 C 197.09 1089.17 207.13 1079.19 196.00 1078.00
C 193.37 1086.91 186.63 1094.11 184.00 1103.00
C 180.68 1092.23 180.94 1079.50 179.00 1068.00 Z"/>
</g>
<g fill="None" fill-opacity="0.0" stroke="#04228B" stroke-opacity="0.78" stroke-width="0.3"><path d="
M 734.00 1075.00 
C 734.10 1072.57 732.96 1068.88 730.00 1069.00
C 726.14 1073.12 719.30 1075.53 714.70 1078.70 C 710.09 1081.86 701.67 1083.59 706.00 1090.00
C 710.38 1088.97 713.70 1085.50 718.00 1084.00
C 721.76 1089.07 724.46 1095.87 728.08 1100.92 C 731.71 1105.97 733.58 1116.05 741.00 1111.00
C 736.32 1100.31 728.57 1090.74 724.00 1080.00
C 727.63 1078.86 730.22 1075.56 734.00 1075.00 Z"/>
</g>
<g fill="None" fill-opacity="0.0" stroke="#04228B" stroke-opacity="0.78" stroke-width="0.3"><path d="
M 198.00 1122.00 
C 200.23 1115.51 204.53 1107.32 207.23 1101.23 C 209.93 1095.14 218.83 1084.97 208.00 1084.00
C 205.59 1090.48 201.29 1098.54 198.77 1104.77 C 196.25 1111.00 186.56 1121.44 198.00 1122.00 Z"/>
</g>
<g fill="None" fill-opacity="0.0" stroke="#04228B" stroke-opacity="0.80" stroke-width="0.3"><path d="
M 220.00 1125.00 
C 220.85 1118.57 221.95 1110.44 222.00 1104.00 C 222.05 1097.56 225.97 1088.36 217.00 1088.00
C 215.46 1095.50 216.35 1106.44 215.93 1113.93 C 215.51 1121.41 211.30 1131.84 221.00 1133.00
C 230.29 1122.22 241.66 1112.83 251.00 1102.00
C 243.51 1096.64 240.04 1106.43 234.75 1110.75 C 229.46 1115.07 225.57 1121.06 220.00 1125.00 Z"/>
</g>
<g fill="None" fill-opacity="0.0" stroke="#04228A" stroke-opacity="0.80" stroke-width="0.3"><path d="
M 702.00 1100.00 
C 713.63 1093.25 696.08 1087.57 688.23 1092.23 C 680.38 1096.89 676.30 1107.30 683.93 1113.07 C 691.55 1118.85 708.64 1106.31 711.60 1116.26 C 714.55 1126.20 693.38 1128.56 692.00 1121.00
C 680.39 1126.64 697.61 1134.79 705.31 1130.31 C 713.00 1125.82 721.73 1119.34 714.90 1109.10 C 708.07 1098.86 695.70 1112.24 687.25 1107.75 C 678.81 1103.26 699.40 1088.05 702.00 1100.00 Z"/>
</g>
<g fill="None" fill-opacity="0.0" stroke="#04228A" stroke-opacity="0.80" stroke-width="0.3"><path d="
M 280.00 1113.00 
C 270.34 1110.72 261.47 1105.84 252.00 1103.00
C 248.37 1115.99 242.44 1128.23 238.00 1141.00
C 244.20 1144.24 249.99 1143.68 255.98 1148.02 C 261.96 1152.37 272.14 1148.94 264.22 1144.78 C 256.31 1140.61 253.65 1141.08 246.00 1138.00
C 247.25 1133.95 249.50 1130.22 250.00 1126.00
C 257.41 1126.79 269.47 1139.11 273.00 1129.00
C 264.84 1124.20 247.00 1123.99 256.00 1111.00
C 263.72 1110.60 278.11 1125.33 280.00 1113.00 Z"/>
</g>
<g fill="None" fill-opacity="0.0" stroke="#04228A" stroke-opacity="0.80" stroke-width="0.3"><path d="
M 657.00 1152.00 
C 667.92 1151.03 657.43 1139.71 665.31 1135.31 C 673.18 1130.90 675.95 1131.21 682.25 1136.75 C 688.55 1142.29 694.14 1135.62 684.25 1129.75 C 674.36 1123.89 667.69 1105.08 655.00 1108.00
C 655.20 1122.79 655.51 1137.55 657.00 1152.00
M 662.00 1115.00 
C 663.40 1119.98 669.51 1122.53 672.00 1127.00
C 668.19 1127.84 664.84 1130.16 661.00 1131.00
C 661.65 1125.83 659.69 1119.34 662.00 1115.00 Z"/>
</g>
<g fill="None" fill-opacity="0.0" stroke="#04228A" stroke-opacity="0.80" stroke-width="0.3"><path d="
M 640.00 1115.00 
C 629.17 1119.95 642.91 1135.00 644.00 1144.00
C 637.87 1141.81 633.37 1135.50 627.70 1132.30 C 622.03 1129.10 616.70 1121.28 610.00 1126.00
C 612.79 1132.61 614.71 1142.04 617.69 1148.31 C 620.68 1154.57 620.52 1167.04 629.00 1162.00
C 626.52 1152.82 622.16 1144.21 620.00 1135.00
C 631.24 1140.48 640.16 1155.29 653.00 1154.00
C 650.25 1140.53 644.26 1128.03 640.00 1115.00 Z"/>
</g>
<g fill="None" fill-opacity="0.0" stroke="#000000" stroke-opacity="0.00" stroke-width="0.3"><path d="
M 662.00 1115.00 
C 659.69 1119.34 661.65 1125.83 661.00 1131.00
C 664.84 1130.16 668.19 1127.84 672.00 1127.00
C 669.51 1122.53 663.40 1119.98 662.00 1115.00 Z"/>
</g>
<g fill="None" fill-opacity="0.0" stroke="#04228B" stroke-opacity="0.80" stroke-width="0.3"><path d="
M 300.00 1144.00 
C 309.77 1146.50 317.72 1130.81 310.23 1124.77 C 302.74 1118.73 292.69 1118.42 284.00 1116.00
C 283.09 1123.17 279.14 1131.66 277.32 1138.32 C 275.51 1144.99 268.71 1154.92 279.00 1156.00
C 279.35 1149.96 282.16 1144.62 284.00 1139.00
C 295.76 1140.66 297.28 1153.56 299.00 1163.00
C 301.54 1162.98 303.76 1164.01 306.00 1165.00
C 305.55 1157.56 303.52 1150.50 300.00 1144.00
M 286.00 1134.00 
C 286.08 1130.09 288.43 1126.82 289.00 1123.00
C 293.66 1124.87 308.51 1125.35 306.00 1134.00 C 303.48 1142.65 290.94 1134.67 286.00 1134.00 Z"/>
</g>
<g fill="None" fill-opacity="0.0" stroke="#000000" stroke-opacity="0.00" stroke-width="0.3"><path d="
M 286.00 1134.00 
C 290.94 1134.67 303.48 1142.65 306.00 1134.00 C 308.51 1125.35 293.66 1124.87 289.00 1123.00
C 288.43 1126.82 286.08 1130.09 286.00 1134.00 Z"/>
</g>
<g fill="None" fill-opacity="0.0" stroke="#04228B" stroke-opacity="0.80" stroke-width="0.3"><path d="
M 346.00 1146.00 
C 348.64 1136.91 340.93 1132.00 334.07 1129.93 C 327.21 1127.86 316.89 1130.29 317.00 1139.00 C 317.11 1147.70 323.53 1149.51 330.77 1153.23 C 338.01 1156.95 338.01 1166.44 327.07 1164.93 C 316.14 1163.41 321.33 1153.00 312.00 1152.00
C 309.22 1159.78 314.57 1166.65 321.78 1169.22 C 328.98 1171.80 337.51 1172.10 341.69 1164.69 C 345.88 1157.29 339.41 1149.73 332.75 1147.25 C 326.08 1144.78 318.07 1137.08 329.00 1135.00 C 339.93 1132.92 337.64 1145.70 346.00 1146.00 Z"/>
</g>
<g fill="None" fill-opacity="0.0" stroke="#04228A" stroke-opacity="0.81" stroke-width="0.3"><path d="
M 595.00 1130.00 
C 568.81 1129.13 568.20 1170.67 594.00 1172.00 C 619.79 1173.33 619.41 1130.81 595.00 1130.00
M 597.00 1136.00 
C 613.00 1139.66 608.90 1170.76 591.93 1166.07 C 574.95 1161.38 578.74 1131.82 597.00 1136.00 Z"/>
</g>
<g fill="None" fill-opacity="0.0" stroke="#04228A" stroke-opacity="0.80" stroke-width="0.3"><path d="
M 353.00 1176.00 
C 353.13 1169.01 357.41 1160.59 358.00 1154.00 C 358.59 1147.41 365.17 1135.28 355.00 1136.00
C 354.54 1142.97 350.64 1151.34 350.00 1158.00 C 349.35 1164.66 342.84 1176.30 353.00 1176.00 Z"/>
</g>
<g fill="None" fill-opacity="0.0" stroke="#000000" stroke-opacity="0.00" stroke-width="0.3"><path d="
M 597.00 1136.00 
C 578.74 1131.82 574.95 1161.38 591.93 1166.07 C 608.90 1170.76 613.00 1139.66 597.00 1136.00 Z"/>
</g>
<g fill="None" fill-opacity="0.0" stroke="#04228B" stroke-opacity="0.80" stroke-width="0.3"><path d="
M 396.00 1149.00 
C 398.07 1140.74 385.50 1141.14 380.00 1140.00 C 374.50 1138.86 362.37 1134.98 364.00 1144.00
C 368.27 1143.36 371.75 1145.64 376.00 1145.00
C 376.05 1151.78 373.66 1159.56 372.98 1165.98 C 372.29 1172.40 367.51 1180.97 377.00 1181.00
C 376.59 1171.75 381.15 1166.43 381.00 1157.00 C 380.86 1147.58 386.99 1144.94 396.00 1149.00 Z"/>
</g>
<g fill="None" fill-opacity="0.0" stroke="#04228A" stroke-opacity="0.80" stroke-width="0.3"><path d="
M 569.00 1178.00 
C 577.92 1178.50 574.22 1167.30 572.00 1161.00 C 569.77 1154.70 572.65 1145.97 568.29 1139.71 C 563.94 1133.44 556.89 1144.69 558.00 1151.00 C 559.11 1157.31 555.37 1166.40 554.00 1172.00
C 547.23 1162.46 544.98 1139.97 530.00 1144.00
C 532.23 1157.37 534.77 1170.66 537.00 1184.00
C 545.98 1184.79 541.36 1176.42 540.99 1171.01 C 540.63 1165.60 537.43 1158.75 539.00 1154.00
C 540.88 1159.40 544.15 1165.00 547.08 1169.92 C 550.01 1174.83 551.85 1183.47 559.00 1180.00
C 559.68 1169.82 562.72 1160.26 563.00 1150.00
C 566.90 1158.34 566.63 1168.87 569.00 1178.00 Z"/>
</g>
<g fill="None" fill-opacity="0.0" stroke="#04228A" stroke-opacity="0.81" stroke-width="0.3"><path d="
M 404.00 1150.00 
C 411.77 1148.56 415.95 1153.81 423.99 1151.99 C 432.03 1150.17 423.69 1144.24 417.22 1145.78 C 410.75 1147.32 404.74 1142.00 398.00 1144.00
C 397.60 1157.57 395.30 1170.67 394.00 1184.00
C 399.94 1183.26 406.48 1185.72 412.00 1186.00 C 417.52 1186.28 426.23 1189.26 425.00 1181.00
C 416.84 1180.94 409.15 1179.06 401.00 1179.00
C 400.84 1174.51 402.72 1170.61 402.00 1166.00
C 409.10 1167.81 416.86 1167.34 424.00 1169.00
C 425.38 1158.23 409.85 1163.32 403.00 1161.00
C 402.51 1157.10 404.72 1153.94 404.00 1150.00 Z"/>
</g>
<g fill="None" fill-opacity="0.0" stroke="#04228A" stroke-opacity="0.81" stroke-width="0.3"><path d="
M 513.00 1152.00 
C 513.52 1143.34 506.75 1147.35 501.00 1147.00 C 495.25 1146.65 488.85 1148.42 483.00 1148.00
C 481.55 1156.94 486.52 1164.03 485.00 1173.00 C 483.48 1181.97 486.71 1191.86 496.93 1187.93 C 507.14 1184.00 513.88 1191.78 516.00 1181.00
C 507.39 1180.28 499.57 1182.62 491.00 1182.00
C 491.00 1178.00 491.00 1174.00 491.00 1170.00
C 497.60 1167.03 513.58 1173.91 512.00 1163.00
C 504.49 1162.69 497.61 1164.76 490.00 1164.00
C 490.00 1160.33 490.00 1156.67 490.00 1153.00
C 497.94 1153.72 505.10 1151.39 513.00 1152.00 Z"/>
</g>
<g fill="None" fill-opacity="0.0" stroke="#04228A" stroke-opacity="0.84" stroke-width="0.3"><path d="
M 446.00 1188.00 
C 463.50 1190.43 479.04 1187.69 479.00 1168.00 C 478.96 1148.31 463.06 1145.97 446.00 1148.00
C 446.00 1161.34 446.00 1174.66 446.00 1188.00
M 452.00 1183.00 
C 452.00 1173.33 452.00 1163.67 452.00 1154.00
C 463.50 1151.78 473.01 1155.67 473.00 1168.00 C 472.99 1180.33 463.92 1185.23 452.00 1183.00 Z"/>
</g>
<g fill="None" fill-opacity="0.0" stroke="#000000" stroke-opacity="0.00" stroke-width="0.3"><path d="
M 452.00 1183.00 
C 463.92 1185.23 472.99 1180.33 473.00 1168.00 C 473.01 1155.67 463.50 1151.78 452.00 1154.00
C 452.00 1163.67 452.00 1173.33 452.00 1183.00 Z"/>
</g>
<g fill="#000000" fill-opacity="0.00" stroke="None">
<path d="
M 0.00 1342.00 
L 960.00 1342.00
L 960.00 0.00
L 0.00 0.00
L 0.00 1342.00
M 552.00 234.00 
C 565.92 221.87 577.44 215.51 593.70 205.70 C 609.95 195.88 621.67 188.52 642.67 184.67 C 663.67 180.83 667.94 210.62 667.00 229.00 C 666.06 247.38 670.55 278.70 667.00 297.00 C 663.45 315.30 656.65 331.93 646.70 346.70 C 636.74 361.46 629.40 374.72 617.00 387.00
C 614.96 393.72 618.92 401.04 618.00 408.00 C 617.08 414.96 617.64 421.98 617.00 429.00
C 619.23 428.48 620.73 430.54 623.00 430.00
C 627.56 423.29 633.06 417.23 636.77 409.77 C 640.49 402.31 644.21 394.22 647.77 386.77 C 651.33 379.32 651.44 366.04 660.00 365.00
C 663.41 394.64 664.39 425.70 659.00 455.00
C 684.85 483.85 687.00 523.93 687.00 562.00
C 687.00 596.14 678.03 631.34 666.00 662.00
C 650.40 701.76 626.13 736.51 601.00 771.00
C 590.50 785.41 582.21 799.17 572.70 814.70 C 563.18 830.23 556.15 845.78 549.22 863.22 C 542.30 880.67 537.69 900.15 533.07 919.07 C 528.46 938.00 527.08 962.61 522.00 981.00
C 492.51 915.81 490.84 834.29 523.00 770.00
C 539.60 731.08 565.07 697.38 586.00 661.00
C 603.53 630.53 620.39 595.71 629.00 562.00
C 632.03 550.13 633.05 538.24 635.00 526.00
C 622.21 553.66 599.30 579.08 577.25 601.25 C 555.20 623.42 532.34 647.62 507.00 665.00
C 497.72 675.34 494.60 689.64 487.70 701.69 C 480.79 713.75 476.84 729.90 472.00 743.00
C 476.84 734.85 484.05 725.60 490.00 719.00
C 498.30 734.27 510.92 750.15 528.00 756.00
C 511.48 764.76 497.18 779.58 488.00 795.00
C 483.21 784.28 476.28 772.42 466.00 766.00
C 461.34 789.72 456.57 814.35 453.00 838.00
C 438.46 804.77 429.21 769.53 430.00 732.00
C 423.94 738.43 416.62 743.09 410.30 749.30 C 403.99 755.52 397.57 761.81 391.25 768.25 C 384.93 774.68 378.66 780.82 372.75 787.75 C 366.85 794.68 361.73 801.70 356.25 809.25 C 350.77 816.79 346.74 824.63 342.23 833.23 C 337.72 841.83 335.20 852.82 333.67 862.67 C 332.14 872.52 333.74 886.01 336.98 895.02 C 340.21 904.04 345.00 912.08 350.75 919.25 C 356.51 926.41 361.01 933.78 368.75 939.25 C 376.49 944.72 385.48 956.18 374.77 951.23 C 364.06 946.28 361.26 940.99 352.75 935.25 C 344.24 929.50 339.39 924.59 332.25 917.75 C 325.11 910.92 320.56 905.76 315.08 897.92 C 309.60 890.08 304.90 882.95 301.23 873.77 C 297.56 864.59 294.83 853.34 294.02 842.98 C 293.21 832.61 289.44 822.91 286.02 812.98 C 282.61 803.04 280.60 792.70 279.00 782.00 C 277.40 771.30 276.46 757.16 277.00 746.00 C 277.54 734.84 279.59 724.12 281.93 713.93 C 284.26 703.74 287.08 694.15 290.92 684.92 C 294.77 675.70 298.38 667.39 302.92 658.92 C 307.47 650.46 311.84 642.68 316.77 634.77 C 321.70 626.86 327.05 619.81 332.25 612.25 C 337.46 604.70 342.97 597.84 348.75 590.75 C 354.53 583.66 359.25 576.18 366.00 570.00
C 370.06 560.03 367.07 545.10 370.93 534.93 C 374.78 524.75 375.47 513.55 379.78 503.78 C 384.09 494.00 386.03 484.22 390.93 474.93 C 395.82 465.63 399.81 457.02 405.00 448.00
C 431.19 402.48 463.33 359.35 482.00 310.00
C 493.79 278.83 505.85 240.04 501.00 206.00 C 496.15 171.96 474.93 149.35 444.00 138.00
C 461.28 133.04 485.83 137.08 501.69 145.31 C 517.56 153.53 527.38 164.34 536.25 179.75 C 545.13 195.15 550.19 216.02 552.00 234.00
M 161.00 878.00 
C 171.31 875.97 183.24 885.93 193.23 887.77 C 203.22 889.61 214.14 895.61 223.69 899.31 C 233.25 903.00 242.80 908.58 252.08 912.92 C 261.35 917.27 269.59 923.56 278.25 928.75 C 286.90 933.95 294.37 940.42 302.25 946.75 C 310.12 953.08 317.59 959.34 324.25 966.75 C 330.92 974.15 338.61 980.44 344.75 988.25 C 350.89 996.05 356.79 1004.21 362.77 1012.23 C 368.75 1020.25 374.17 1028.68 380.25 1036.75 C 386.34 1044.81 391.34 1053.03 398.30 1060.70 C 405.26 1068.36 411.53 1074.74 420.25 1080.75 C 428.96 1086.77 441.14 1090.45 452.00 1092.00 C 462.86 1093.54 478.86 1092.72 489.02 1089.02 C 499.19 1085.33 507.79 1080.34 516.08 1074.08 C 524.37 1067.82 530.55 1060.86 537.25 1053.25 C 543.95 1045.63 549.75 1037.78 555.75 1029.75 C 561.76 1021.73 567.47 1013.41 573.30 1005.30 C 579.14 997.20 585.53 989.59 591.75 981.75 C 597.97 973.91 604.10 966.37 610.92 958.92 C 617.73 951.47 624.77 945.06 632.25 938.25 C 639.73 931.44 647.55 925.84 655.75 919.75 C 663.94 913.65 673.02 909.22 682.08 904.08 C 691.13 898.93 700.59 894.14 710.68 890.68 C 720.77 887.22 732.05 881.13 743.00 880.00
C 743.40 879.96 744.94 878.13 746.00 879.00
C 745.33 880.20 744.36 881.58 743.00 882.00
C 739.83 888.50 727.78 891.46 722.75 897.75 C 717.72 904.05 708.41 908.31 702.75 914.75 C 697.10 921.19 690.45 927.32 685.08 934.08 C 679.71 940.84 673.22 947.13 668.25 954.25 C 663.27 961.36 658.00 968.89 653.23 976.23 C 648.46 983.57 643.79 990.67 639.23 998.23 C 634.67 1005.79 630.05 1013.76 625.25 1021.25 C 620.44 1028.74 616.40 1036.94 611.23 1044.23 C 606.06 1051.52 601.44 1058.76 595.75 1065.75 C 590.05 1072.73 584.65 1078.83 577.92 1084.92 C 571.19 1091.00 564.97 1096.52 556.92 1100.92 C 548.88 1105.33 542.11 1109.66 532.92 1112.92 C 523.74 1116.19 513.61 1118.69 503.33 1120.33 C 493.05 1121.97 480.15 1123.41 469.00 1123.00 C 457.85 1122.59 443.56 1123.47 433.00 1122.00 C 422.44 1120.53 411.88 1118.43 402.32 1115.68 C 392.77 1112.93 384.60 1109.06 376.31 1104.70 C 368.01 1100.33 362.46 1095.25 355.75 1089.25 C 349.04 1083.24 343.22 1077.36 337.75 1070.25 C 332.28 1063.14 327.31 1056.07 322.25 1048.75 C 317.18 1041.44 312.79 1033.57 307.70 1026.30 C 302.61 1019.04 297.81 1011.46 292.70 1004.30 C 287.58 997.15 282.43 989.95 276.75 983.25 C 271.08 976.55 266.78 969.67 260.70 963.30 C 254.61 956.94 248.79 950.63 242.75 944.25 C 236.72 937.87 229.73 932.65 223.30 926.70 C 216.88 920.75 210.11 915.17 203.25 909.75 C 196.38 904.34 188.97 899.25 181.77 894.23 C 174.57 889.21 166.90 884.12 160.00 879.00
C 158.84 878.14 155.33 878.72 156.00 876.00
C 157.60 876.56 160.03 876.50 161.00 878.00
M 778.00 1065.00 
C 785.04 1066.13 791.33 1069.70 798.00 1072.00
C 789.40 1084.36 775.23 1061.87 765.00 1074.00
C 765.76 1080.18 772.05 1084.31 774.00 1090.00
C 771.72 1090.55 770.41 1092.99 768.00 1093.00
C 761.95 1081.14 752.04 1070.86 746.00 1059.00
C 754.65 1055.77 758.50 1048.22 768.03 1046.03 C 777.55 1043.83 785.98 1057.51 778.00 1065.00
M 146.00 1050.00 
C 143.85 1059.86 123.14 1076.85 136.75 1085.25 C 150.35 1093.66 156.85 1067.83 162.00 1060.00
C 173.35 1063.20 161.94 1071.89 159.08 1080.08 C 156.21 1088.26 146.24 1096.02 136.93 1092.07 C 127.62 1088.13 122.97 1079.17 127.32 1070.32 C 131.68 1061.47 136.43 1055.86 140.00 1047.00
C 142.37 1047.03 143.72 1049.50 146.00 1050.00
M 762.00 1098.00 
C 753.88 1103.22 751.40 1091.46 747.23 1085.77 C 743.06 1080.09 738.30 1072.25 735.00 1066.00
C 743.12 1060.78 745.60 1072.54 749.77 1078.23 C 753.94 1083.91 758.70 1091.75 762.00 1098.00
M 179.00 1068.00 
C 180.94 1079.50 180.68 1092.23 184.00 1103.00
C 186.63 1094.11 193.37 1086.91 196.00 1078.00
C 207.13 1079.19 197.09 1089.17 194.23 1095.23 C 191.37 1101.29 187.15 1109.77 184.00 1116.00
C 175.15 1115.38 178.28 1105.60 176.67 1099.33 C 175.06 1093.06 176.54 1084.37 173.00 1079.00
C 171.27 1084.16 168.44 1089.14 166.08 1094.08 C 163.71 1099.01 161.44 1106.81 155.00 1102.00
C 160.66 1089.80 167.59 1078.17 173.00 1066.00
C 175.25 1065.86 176.71 1068.16 179.00 1068.00
M 734.00 1075.00 
C 730.22 1075.56 727.63 1078.86 724.00 1080.00
C 728.57 1090.74 736.32 1100.31 741.00 1111.00
C 733.58 1116.05 731.71 1105.97 728.08 1100.92 C 724.46 1095.87 721.76 1089.07 718.00 1084.00
C 713.70 1085.50 710.38 1088.97 706.00 1090.00
C 701.67 1083.59 710.09 1081.86 714.70 1078.70 C 719.30 1075.53 726.14 1073.12 730.00 1069.00
C 732.96 1068.88 734.10 1072.57 734.00 1075.00
M 198.00 1122.00 
C 186.56 1121.44 196.25 1111.00 198.77 1104.77 C 201.29 1098.54 205.59 1090.48 208.00 1084.00
C 218.83 1084.97 209.93 1095.14 207.23 1101.23 C 204.53 1107.32 200.23 1115.51 198.00 1122.00
M 220.00 1125.00 
C 225.57 1121.06 229.46 1115.07 234.75 1110.75 C 240.04 1106.43 243.51 1096.64 251.00 1102.00
C 241.66 1112.83 230.29 1122.22 221.00 1133.00
C 211.30 1131.84 215.51 1121.41 215.93 1113.93 C 216.35 1106.44 215.46 1095.50 217.00 1088.00
C 225.97 1088.36 222.05 1097.56 222.00 1104.00 C 221.95 1110.44 220.85 1118.57 220.00 1125.00
M 702.00 1100.00 
C 699.40 1088.05 678.81 1103.26 687.25 1107.75 C 695.70 1112.24 708.07 1098.86 714.90 1109.10 C 721.73 1119.34 713.00 1125.82 705.31 1130.31 C 697.61 1134.79 680.39 1126.64 692.00 1121.00
C 693.38 1128.56 714.55 1126.20 711.60 1116.26 C 708.64 1106.31 691.55 1118.85 683.93 1113.07 C 676.30 1107.30 680.38 1096.89 688.23 1092.23 C 696.08 1087.57 713.63 1093.25 702.00 1100.00
M 280.00 1113.00 
C 278.11 1125.33 263.72 1110.60 256.00 1111.00
C 247.00 1123.99 264.84 1124.20 273.00 1129.00
C 269.47 1139.11 257.41 1126.79 250.00 1126.00
C 249.50 1130.22 247.25 1133.95 246.00 1138.00
C 253.65 1141.08 256.31 1140.61 264.22 1144.78 C 272.14 1148.94 261.96 1152.37 255.98 1148.02 C 249.99 1143.68 244.20 1144.24 238.00 1141.00
C 242.44 1128.23 248.37 1115.99 252.00 1103.00
C 261.47 1105.84 270.34 1110.72 280.00 1113.00
M 657.00 1152.00 
C 655.51 1137.55 655.20 1122.79 655.00 1108.00
C 667.69 1105.08 674.36 1123.89 684.25 1129.75 C 694.14 1135.62 688.55 1142.29 682.25 1136.75 C 675.95 1131.21 673.18 1130.90 665.31 1135.31 C 657.43 1139.71 667.92 1151.03 657.00 1152.00
M 640.00 1115.00 
C 644.26 1128.03 650.25 1140.53 653.00 1154.00
C 640.16 1155.29 631.24 1140.48 620.00 1135.00
C 622.16 1144.21 626.52 1152.82 629.00 1162.00
C 620.52 1167.04 620.68 1154.57 617.69 1148.31 C 614.71 1142.04 612.79 1132.61 610.00 1126.00
C 616.70 1121.28 622.03 1129.10 627.70 1132.30 C 633.37 1135.50 637.87 1141.81 644.00 1144.00
C 642.91 1135.00 629.17 1119.95 640.00 1115.00
M 300.00 1144.00 
C 303.52 1150.50 305.55 1157.56 306.00 1165.00
C 303.76 1164.01 301.54 1162.98 299.00 1163.00
C 297.28 1153.56 295.76 1140.66 284.00 1139.00
C 282.16 1144.62 279.35 1149.96 279.00 1156.00
C 268.71 1154.92 275.51 1144.99 277.32 1138.32 C 279.14 1131.66 283.09 1123.17 284.00 1116.00
C 292.69 1118.42 302.74 1118.73 310.23 1124.77 C 317.72 1130.81 309.77 1146.50 300.00 1144.00
M 346.00 1146.00 
C 337.64 1145.70 339.93 1132.92 329.00 1135.00 C 318.07 1137.08 326.08 1144.78 332.75 1147.25 C 339.41 1149.73 345.88 1157.29 341.69 1164.69 C 337.51 1172.10 328.98 1171.80 321.78 1169.22 C 314.57 1166.65 309.22 1159.78 312.00 1152.00
C 321.33 1153.00 316.14 1163.41 327.07 1164.93 C 338.01 1166.44 338.01 1156.95 330.77 1153.23 C 323.53 1149.51 317.11 1147.70 317.00 1139.00 C 316.89 1130.29 327.21 1127.86 334.07 1129.93 C 340.93 1132.00 348.64 1136.91 346.00 1146.00
M 595.00 1130.00 
C 619.41 1130.81 619.79 1173.33 594.00 1172.00 C 568.20 1170.67 568.81 1129.13 595.00 1130.00
M 353.00 1176.00 
C 342.84 1176.30 349.35 1164.66 350.00 1158.00 C 350.64 1151.34 354.54 1142.97 355.00 1136.00
C 365.17 1135.28 358.59 1147.41 358.00 1154.00 C 357.41 1160.59 353.13 1169.01 353.00 1176.00
M 396.00 1149.00 
C 386.99 1144.94 380.86 1147.58 381.00 1157.00 C 381.15 1166.43 376.59 1171.75 377.00 1181.00
C 367.51 1180.97 372.29 1172.40 372.98 1165.98 C 373.66 1159.56 376.05 1151.78 376.00 1145.00
C 371.75 1145.64 368.27 1143.36 364.00 1144.00
C 362.37 1134.98 374.50 1138.86 380.00 1140.00 C 385.50 1141.14 398.07 1140.74 396.00 1149.00
M 569.00 1178.00 
C 566.63 1168.87 566.90 1158.34 563.00 1150.00
C 562.72 1160.26 559.68 1169.82 559.00 1180.00
C 551.85 1183.47 550.01 1174.83 547.08 1169.92 C 544.15 1165.00 540.88 1159.40 539.00 1154.00
C 537.43 1158.75 540.63 1165.60 540.99 1171.01 C 541.36 1176.42 545.98 1184.79 537.00 1184.00
C 534.77 1170.66 532.23 1157.37 530.00 1144.00
C 544.98 1139.97 547.23 1162.46 554.00 1172.00
C 555.37 1166.40 559.11 1157.31 558.00 1151.00 C 556.89 1144.69 563.94 1133.44 568.29 1139.71 C 572.65 1145.97 569.77 1154.70 572.00 1161.00 C 574.22 1167.30 577.92 1178.50 569.00 1178.00
M 404.00 1150.00 
C 404.72 1153.94 402.51 1157.10 403.00 1161.00
C 409.85 1163.32 425.38 1158.23 424.00 1169.00
C 416.86 1167.34 409.10 1167.81 402.00 1166.00
C 402.72 1170.61 400.84 1174.51 401.00 1179.00
C 409.15 1179.06 416.84 1180.94 425.00 1181.00
C 426.23 1189.26 417.52 1186.28 412.00 1186.00 C 406.48 1185.72 399.94 1183.26 394.00 1184.00
C 395.30 1170.67 397.60 1157.57 398.00 1144.00
C 404.74 1142.00 410.75 1147.32 417.22 1145.78 C 423.69 1144.24 432.03 1150.17 423.99 1151.99 C 415.95 1153.81 411.77 1148.56 404.00 1150.00
M 513.00 1152.00 
C 505.10 1151.39 497.94 1153.72 490.00 1153.00
C 490.00 1156.67 490.00 1160.33 490.00 1164.00
C 497.61 1164.76 504.49 1162.69 512.00 1163.00
C 513.58 1173.91 497.60 1167.03 491.00 1170.00
C 491.00 1174.00 491.00 1178.00 491.00 1182.00
C 499.57 1182.62 507.39 1180.28 516.00 1181.00
C 513.88 1191.78 507.14 1184.00 496.93 1187.93 C 486.71 1191.86 483.48 1181.97 485.00 1173.00 C 486.52 1164.03 481.55 1156.94 483.00 1148.00
C 488.85 1148.42 495.25 1146.65 501.00 1147.00 C 506.75 1147.35 513.52 1143.34 513.00 1152.00
M 446.00 1188.00 
C 446.00 1174.66 446.00 1161.34 446.00 1148.00
C 463.06 1145.97 478.96 1148.31 479.00 1168.00 C 479.04 1187.69 463.50 1190.43 446.00 1188.00 Z"/>
</g>
<g fill="#EE5D01" fill-opacity="0.96" stroke="None">
<path d="
M 482.00 310.00 
C 484.02 315.46 498.56 310.05 503.00 312.00
C 503.92 295.12 504.04 274.27 517.75 263.75 C 531.46 253.24 539.53 244.87 552.00 234.00
C 550.19 216.02 545.13 195.15 536.25 179.75 C 527.38 164.34 517.56 153.53 501.69 145.31 C 485.83 137.08 461.28 133.04 444.00 138.00
C 474.93 149.35 496.15 171.96 501.00 206.00 C 505.85 240.04 493.79 278.83 482.00 310.00 Z"/>
</g>
<g fill="#F6F6F8" fill-opacity="0.89" stroke="None">
<path d="
M 552.00 234.00 
C 539.53 244.87 531.46 253.24 517.75 263.75 C 504.04 274.27 503.92 295.12 503.00 312.00
C 502.18 327.05 501.11 346.85 503.93 361.07 C 506.75 375.29 516.64 382.10 524.00 394.00
C 525.92 397.11 528.47 399.71 530.00 403.00
C 523.74 409.15 516.41 414.10 511.00 421.00
C 508.82 423.55 506.34 425.75 504.00 428.00
C 500.82 431.87 496.98 434.86 493.00 438.00
C 470.75 458.57 450.64 481.45 428.25 502.25 C 405.86 523.05 388.15 549.72 366.00 570.00
C 359.25 576.18 354.53 583.66 348.75 590.75 C 342.97 597.84 337.46 604.70 332.25 612.25 C 327.05 619.81 321.70 626.86 316.77 634.77 C 311.84 642.68 307.47 650.46 302.92 658.92 C 298.38 667.39 294.77 675.70 290.92 684.92 C 287.08 694.15 284.26 703.74 281.93 713.93 C 279.59 724.12 277.54 734.84 277.00 746.00 C 276.46 757.16 277.40 771.30 279.00 782.00 C 280.60 792.70 282.61 803.04 286.02 812.98 C 289.44 822.91 293.21 832.61 294.02 842.98 C 294.83 853.34 297.56 864.59 301.23 873.77 C 304.90 882.95 309.60 890.08 315.08 897.92 C 320.56 905.76 325.11 910.92 332.25 917.75 C 339.39 924.59 344.24 929.50 352.75 935.25 C 361.26 940.99 364.06 946.28 374.77 951.23 C 385.48 956.18 376.49 944.72 368.75 939.25 C 361.01 933.78 356.51 926.41 350.75 919.25 C 345.00 912.08 340.21 904.04 336.98 895.02 C 333.74 886.01 332.14 872.52 333.67 862.67 C 335.20 852.82 337.72 841.83 342.23 833.23 C 346.74 824.63 350.77 816.79 356.25 809.25 C 361.73 801.70 366.85 794.68 372.75 787.75 C 378.66 780.82 384.93 774.68 391.25 768.25 C 397.57 761.81 403.99 755.52 410.30 749.30 C 416.62 743.09 423.94 738.43 430.00 732.00
C 441.08 720.25 454.73 708.39 467.75 697.75 C 480.78 687.11 493.15 674.50 507.00 665.00
C 532.34 647.62 555.20 623.42 577.25 601.25 C 599.30 579.08 622.21 553.66 635.00 526.00
C 645.60 503.08 652.51 478.93 659.00 455.00
C 664.39 425.70 663.41 394.64 660.00 365.00
C 651.44 366.04 651.33 379.32 647.77 386.77 C 644.21 394.22 640.49 402.31 636.77 409.77 C 633.06 417.23 627.56 423.29 623.00 430.00
C 605.41 455.91 573.68 467.15 543.00 467.00
C 567.11 440.26 593.95 414.27 617.00 387.00
C 629.40 374.72 636.74 361.46 646.70 346.70 C 656.65 331.93 663.45 315.30 667.00 297.00 C 670.55 278.70 666.06 247.38 667.00 229.00 C 667.94 210.62 663.67 180.83 642.67 184.67 C 621.67 188.52 609.95 195.88 593.70 205.70 C 577.44 215.51 565.92 221.87 552.00 234.00
M 663.00 225.00 
C 663.17 226.75 663.95 229.60 664.00 232.00
C 664.62 262.76 666.25 304.24 651.70 329.69 C 637.14 355.15 623.92 373.73 605.75 394.75 C 587.58 415.77 571.48 432.28 552.75 451.75 C 534.03 471.22 515.48 487.92 497.25 507.25 C 479.02 526.58 459.10 542.98 442.00 563.00
C 439.84 565.53 437.28 567.72 435.00 570.00
C 404.73 605.42 373.71 633.41 348.25 672.25 C 322.78 711.09 294.00 758.21 294.00 807.00
C 294.00 813.00 294.00 819.00 294.00 825.00
C 292.80 823.89 292.34 821.71 292.00 820.00
C 286.48 802.98 281.00 784.41 281.00 766.00
C 280.42 760.02 280.43 752.91 281.00 747.00
C 281.00 734.06 284.14 719.28 287.32 707.32 C 290.51 695.36 295.13 683.89 299.93 672.93 C 304.72 661.96 310.79 652.64 316.75 642.75 C 322.72 632.87 328.56 623.44 335.30 614.30 C 342.05 605.16 348.51 596.37 355.75 587.75 C 363.00 579.14 369.50 570.42 377.25 562.25 C 385.00 554.08 391.63 545.41 399.25 537.25 C 406.87 529.09 414.49 521.27 422.25 513.25 C 430.01 505.23 438.01 497.80 445.75 489.75 C 453.49 481.70 461.59 474.46 469.25 466.25 C 476.91 458.03 485.26 451.01 493.25 443.25 C 501.24 435.48 509.19 428.03 517.25 420.25 C 525.31 412.47 537.93 405.50 530.08 395.92 C 522.23 386.33 516.04 379.55 509.75 369.25 C 503.46 358.95 504.75 339.45 505.00 327.00
C 505.05 324.59 505.84 321.70 506.00 320.00
C 506.27 306.29 505.83 284.08 512.75 272.75 C 519.68 261.42 532.27 256.60 541.70 247.70 C 551.12 238.80 561.72 231.46 572.75 223.75 C 583.77 216.03 593.08 209.46 606.08 203.08 C 619.08 196.70 628.59 190.15 645.01 188.01 C 661.43 185.86 662.75 212.28 663.00 225.00
M 404.00 750.00 
C 396.42 757.59 388.54 765.46 381.00 773.00
C 358.40 799.45 330.00 829.44 330.00 866.00
C 330.00 870.00 329.92 874.00 330.00 878.00
C 330.45 900.46 344.14 913.16 355.00 931.00
C 356.26 932.26 358.48 933.09 359.00 935.00
C 357.72 935.27 356.28 934.23 356.00 933.00
C 350.18 929.51 345.16 924.41 340.00 920.00
C 336.40 916.92 333.03 913.55 330.00 910.00
C 306.18 882.13 289.79 844.56 301.98 808.98 C 314.16 773.40 332.04 752.04 356.00 724.00
C 358.77 720.76 362.06 717.94 365.00 715.00
C 369.84 709.33 375.38 703.80 381.00 699.00
C 383.00 697.00 384.87 694.82 387.00 693.00
C 395.12 686.06 402.49 678.30 410.75 671.75 C 419.02 665.20 426.46 657.22 434.75 650.75 C 443.04 644.28 451.31 637.18 459.25 630.25 C 467.18 623.31 476.56 617.25 484.23 610.23 C 491.90 603.21 501.68 596.96 508.75 589.75 C 515.83 582.54 527.23 576.50 533.08 569.08 C 538.93 561.66 555.73 556.29 553.07 545.93 C 550.42 535.57 542.74 523.38 543.00 511.00 C 543.27 498.62 539.90 482.12 545.00 470.00
C 601.24 473.38 643.39 424.02 656.00 374.00
C 665.19 416.15 655.02 471.56 638.69 508.69 C 622.37 545.83 599.64 572.64 572.25 601.25 C 544.85 629.86 517.60 650.77 488.75 675.75 C 459.90 700.74 432.26 724.36 404.00 750.00
M 450.00 634.00 
C 439.37 640.58 429.67 649.88 420.25 658.25 C 410.83 666.61 399.47 674.65 391.00 684.00
C 389.35 685.82 388.75 686.59 387.00 688.00
C 367.20 703.95 351.45 723.05 335.25 742.25 C 319.04 761.44 303.11 787.23 298.00 812.00
C 297.64 813.73 298.59 816.53 296.00 817.00
C 296.56 814.48 294.81 810.70 297.00 809.00
C 301.01 788.22 303.22 763.93 311.93 744.93 C 320.63 725.93 329.09 710.68 339.25 693.25 C 349.42 675.83 362.17 663.44 373.00 647.00
C 381.59 633.96 391.98 620.00 404.00 609.00
C 409.26 604.18 413.12 598.40 418.25 593.25 C 423.38 588.09 428.21 582.50 433.25 577.25 C 438.28 572.00 443.86 566.88 448.30 561.30 C 452.75 555.73 458.91 550.98 463.75 545.75 C 468.59 540.53 473.73 535.77 478.75 530.75 C 483.77 525.73 489.11 520.04 494.25 515.25 C 499.39 510.45 504.52 504.07 509.75 499.75 C 514.99 495.43 519.87 487.53 525.25 484.25 C 530.62 480.96 535.08 469.55 541.00 469.00
C 540.87 469.08 539.52 481.66 539.00 487.00 C 538.48 492.35 538.81 505.55 539.33 511.67 C 539.85 517.79 542.29 525.02 543.93 531.07 C 545.56 537.13 548.11 543.30 551.00 549.00
C 517.90 578.37 484.29 606.64 450.00 634.00 Z"/>
</g>
<g fill="#04248A" fill-opacity="1.00" stroke="None">
<path d="
M 506.00 320.00 
C 505.95 322.41 505.16 325.30 505.00 327.00
C 504.75 339.45 503.46 358.95 509.75 369.25 C 516.04 379.55 522.23 386.33 530.08 395.92 C 537.93 405.50 525.31 412.47 517.25 420.25 C 509.19 428.03 501.24 435.48 493.25 443.25 C 485.26 451.01 476.91 458.03 469.25 466.25 C 461.59 474.46 453.49 481.70 445.75 489.75 C 438.01 497.80 430.01 505.23 422.25 513.25 C 414.49 521.27 406.87 529.09 399.25 537.25 C 391.63 545.41 385.00 554.08 377.25 562.25 C 369.50 570.42 363.00 579.14 355.75 587.75 C 348.51 596.37 342.05 605.16 335.30 614.30 C 328.56 623.44 322.72 632.87 316.75 642.75 C 310.79 652.64 304.72 661.96 299.93 672.93 C 295.13 683.89 290.51 695.36 287.32 707.32 C 284.14 719.28 281.00 734.06 281.00 747.00
C 281.00 753.33 281.00 759.67 281.00 766.00
C 281.00 784.41 286.48 802.98 292.00 820.00
C 291.87 816.77 293.69 810.20 294.00 807.00
C 294.00 758.21 322.78 711.09 348.25 672.25 C 373.71 633.41 404.73 605.42 435.00 570.00
C 437.16 567.47 439.72 565.28 442.00 563.00
C 459.10 542.98 479.02 526.58 497.25 507.25 C 515.48 487.92 534.03 471.22 552.75 451.75 C 571.48 432.28 587.58 415.77 605.75 394.75 C 623.92 373.73 637.14 355.15 651.70 329.69 C 666.25 304.24 664.62 262.76 664.00 232.00
C 663.83 230.25 663.05 227.40 663.00 225.00
C 662.75 212.28 661.43 185.86 645.01 188.01 C 628.59 190.15 619.08 196.70 606.08 203.08 C 593.08 209.46 583.77 216.03 572.75 223.75 C 561.72 231.46 551.12 238.80 541.70 247.70 C 532.27 256.60 519.68 261.42 512.75 272.75 C 505.83 284.08 506.27 306.29 506.00 320.00
M 546.00 385.00 
C 546.14 381.39 546.20 377.61 546.00 374.00
C 544.87 353.27 524.13 339.71 516.00 322.00
C 518.62 320.11 521.24 317.65 523.00 315.00
C 526.66 310.71 530.76 306.62 535.00 303.00
C 568.03 274.77 605.05 252.60 648.00 246.00
C 628.71 303.53 589.87 352.31 545.00 395.00
C 544.79 391.54 546.70 388.60 546.00 385.00 Z"/>
</g>
<g fill="#6B7CB8" fill-opacity="1.00" stroke="None">
<path d="
M 664.00 232.00 
C 663.95 229.60 663.17 226.75 663.00 225.00
C 663.05 227.40 663.83 230.25 664.00 232.00 Z"/>
</g>
<g fill="#F5F5F8" fill-opacity="0.90" stroke="None">
<path d="
M 535.00 303.00 
C 531.08 306.92 526.87 311.13 523.00 315.00
C 521.24 317.65 518.62 320.11 516.00 322.00
C 524.13 339.71 544.87 353.27 546.00 374.00
C 546.60 377.72 546.52 381.36 546.00 385.00
C 546.70 388.60 544.79 391.54 545.00 395.00
C 589.87 352.31 628.71 303.53 648.00 246.00
C 605.05 252.60 568.03 274.77 535.00 303.00
M 600.00 327.00 
C 591.05 341.30 579.40 357.55 566.00 369.00
C 560.14 374.01 555.80 380.11 550.00 385.00
C 551.50 372.00 548.23 359.45 540.00 350.00
C 533.40 341.55 526.81 332.24 520.00 324.00
C 530.91 310.69 544.07 296.52 559.00 289.00
C 584.53 272.19 611.18 256.08 642.00 251.00
C 632.45 278.23 617.99 304.33 600.00 327.00 Z"/>
</g>
<g fill="#000000" fill-opacity="0.00" stroke="None">
<path d="
M 559.00 289.00 
C 565.97 289.27 577.63 299.37 582.75 304.25 C 587.87 309.13 599.80 319.84 600.00 327.00
C 617.99 304.33 632.45 278.23 642.00 251.00
C 611.18 256.08 584.53 272.19 559.00 289.00 Z"/>
</g>
<g fill="#EF7304" fill-opacity="0.97" stroke="None">
<path d="
M 540.00 350.00 
C 539.50 344.54 544.61 338.76 544.93 332.93 C 545.25 327.09 547.90 319.80 549.00 314.00
C 561.17 329.35 566.58 348.98 566.00 369.00
C 579.40 357.55 591.05 341.30 600.00 327.00
C 599.80 319.84 587.87 309.13 582.75 304.25 C 577.63 299.37 565.97 289.27 559.00 289.00
C 544.07 296.52 530.91 310.69 520.00 324.00
C 526.81 332.24 533.40 341.55 540.00 350.00 Z"/>
</g>
<g fill="#6D7EB9" fill-opacity="1.00" stroke="None">
<path d="
M 523.00 315.00 
C 526.87 311.13 531.08 306.92 535.00 303.00
C 530.76 306.62 526.66 310.71 523.00 315.00 Z"/>
</g>
<g fill="#EF7F01" fill-opacity="0.98" stroke="None">
<path d="
M 405.00 448.00 
C 411.68 445.08 421.59 449.22 429.00 448.00 C 436.41 446.78 446.44 448.49 454.00 448.00 C 461.56 447.51 470.70 448.01 478.00 448.00 C 485.30 447.99 487.76 442.13 493.00 438.00
C 496.98 434.86 500.82 431.87 504.00 428.00
C 504.75 427.09 505.35 425.93 506.00 425.00
C 508.99 420.68 513.06 414.64 514.92 409.92 C 516.79 405.20 523.91 398.63 524.00 394.00
C 516.64 382.10 506.75 375.29 503.93 361.07 C 501.11 346.85 502.18 327.05 503.00 312.00
C 498.56 310.05 484.02 315.46 482.00 310.00
C 463.33 359.35 431.19 402.48 405.00 448.00 Z"/>
</g>
<g fill="#000000" fill-opacity="0.00" stroke="None">
<path d="
M 540.00 350.00 
C 548.23 359.45 551.50 372.00 550.00 385.00
C 555.80 380.11 560.14 374.01 566.00 369.00
C 566.58 348.98 561.17 329.35 549.00 314.00
C 547.90 319.80 545.25 327.09 544.93 332.93 C 544.61 338.76 539.50 344.54 540.00 350.00 Z"/>
</g>
<g fill="#8C9AC8" fill-opacity="1.00" stroke="None">
<path d="
M 505.00 327.00 
C 505.16 325.30 505.95 322.41 506.00 320.00
C 505.84 321.70 505.05 324.59 505.00 327.00 Z"/>
</g>
<g fill="#7182BB" fill-opacity="1.00" stroke="None">
<path d="
M 546.00 385.00 
C 546.52 381.36 546.60 377.72 546.00 374.00
C 546.20 377.61 546.14 381.39 546.00 385.00 Z"/>
</g>
<g fill="#042489" fill-opacity="1.00" stroke="None">
<path d="
M 387.00 693.00 
C 385.00 695.00 383.13 697.18 381.00 699.00
C 375.38 703.80 369.84 709.33 365.00 715.00
C 362.23 718.24 358.94 721.06 356.00 724.00
C 332.04 752.04 314.16 773.40 301.98 808.98 C 289.79 844.56 306.18 882.13 330.00 910.00
C 333.25 913.25 336.80 916.79 340.00 920.00
C 345.16 924.41 350.18 929.51 356.00 933.00
C 355.55 932.38 355.38 931.62 355.00 931.00
C 344.14 913.16 330.45 900.46 330.00 878.00
C 329.53 874.15 329.64 869.76 330.00 866.00
C 330.00 829.44 358.40 799.45 381.00 773.00
C 387.90 764.92 395.97 756.86 404.00 750.00
C 432.26 724.36 459.90 700.74 488.75 675.75 C 517.60 650.77 544.85 629.86 572.25 601.25 C 599.64 572.64 622.37 545.83 638.69 508.69 C 655.02 471.56 665.19 416.15 656.00 374.00
C 643.39 424.02 601.24 473.38 545.00 470.00
C 539.90 482.12 543.27 498.62 543.00 511.00 C 542.74 523.38 550.42 535.57 553.07 545.93 C 555.73 556.29 538.93 561.66 533.08 569.08 C 527.23 576.50 515.83 582.54 508.75 589.75 C 501.68 596.96 491.90 603.21 484.23 610.23 C 476.56 617.25 467.18 623.31 459.25 630.25 C 451.31 637.18 443.04 644.28 434.75 650.75 C 426.46 657.22 419.02 665.20 410.75 671.75 C 402.49 678.30 395.12 686.06 387.00 693.00 Z"/>
</g>
<g fill="#F08809" fill-opacity="0.99" stroke="None">
<path d="
M 623.00 430.00 
C 620.73 430.54 619.23 428.48 617.00 429.00
C 617.64 421.98 617.08 414.96 618.00 408.00 C 618.92 401.04 614.96 393.72 617.00 387.00
C 593.95 414.27 567.11 440.26 543.00 467.00
C 573.68 467.15 605.41 455.91 623.00 430.00 Z"/>
</g>
<g fill="#000000" fill-opacity="0.00" stroke="None">
<path d="
M 506.00 425.00 
C 507.35 423.53 509.63 422.37 511.00 421.00
C 516.41 414.10 523.74 409.15 530.00 403.00
C 528.47 399.71 525.92 397.11 524.00 394.00
C 523.91 398.63 516.79 405.20 514.92 409.92 C 513.06 414.64 508.99 420.68 506.00 425.00 Z"/>
</g>
<g fill="#FFFFFF" fill-opacity="0.22" stroke="None">
<path d="
M 506.00 425.00 
C 505.35 425.93 504.75 427.09 504.00 428.00
C 506.34 425.75 508.82 423.55 511.00 421.00
C 509.63 422.37 507.35 423.53 506.00 425.00 Z"/>
</g>
<g fill="#F09102" fill-opacity="0.98" stroke="None">
<path d="
M 405.00 448.00 
C 399.81 457.02 395.82 465.63 390.93 474.93 C 386.03 484.22 384.09 494.00 379.78 503.78 C 375.47 513.55 374.78 524.75 370.93 534.93 C 367.07 545.10 370.06 560.03 366.00 570.00
C 388.15 549.72 405.86 523.05 428.25 502.25 C 450.64 481.45 470.75 458.57 493.00 438.00
C 487.76 442.13 485.30 447.99 478.00 448.00 C 470.70 448.01 461.56 447.51 454.00 448.00 C 446.44 448.49 436.41 446.78 429.00 448.00 C 421.59 449.22 411.68 445.08 405.00 448.00 Z"/>
</g>
<g fill="#F09702" fill-opacity="0.98" stroke="None">
<path d="
M 635.00 526.00 
C 633.05 538.24 632.03 550.13 629.00 562.00
C 631.25 565.40 643.62 562.50 648.00 563.00 C 652.38 563.50 663.62 563.59 668.00 563.00 C 672.38 562.41 684.48 565.57 687.00 562.00
C 687.00 523.93 684.85 483.85 659.00 455.00
C 652.51 478.93 645.60 503.08 635.00 526.00 Z"/>
</g>
<g fill="#F19E07" fill-opacity="0.97" stroke="None">
<path d="
M 541.00 469.00 
C 536.00 471.98 536.09 483.31 532.08 488.08 C 528.06 492.84 526.19 500.87 522.23 506.23 C 518.27 511.59 515.92 519.46 512.08 525.08 C 508.23 530.69 505.05 536.53 501.23 542.23 C 497.41 547.93 493.96 554.38 490.08 560.08 C 486.20 565.78 483.11 571.49 479.23 577.23 C 475.35 582.97 472.51 589.87 468.70 595.70 C 464.88 601.52 462.92 608.31 459.08 614.08 C 455.23 619.85 454.31 628.76 450.00 634.00
C 484.29 606.64 517.90 578.37 551.00 549.00
C 548.11 543.30 545.56 537.13 543.93 531.07 C 542.29 525.02 539.85 517.79 539.33 511.67 C 538.81 505.55 538.48 492.35 539.00 487.00 C 539.52 481.66 540.87 469.08 541.00 469.00 Z"/>
</g>
<g fill="#000000" fill-opacity="0.00" stroke="None">
<path d="
M 404.00 609.00 
C 398.65 620.05 400.42 633.55 396.22 645.22 C 392.02 656.89 394.48 672.06 391.00 684.00
C 399.47 674.65 410.83 666.61 420.25 658.25 C 429.67 649.88 439.37 640.58 450.00 634.00
C 454.31 628.76 455.23 619.85 459.08 614.08 C 462.92 608.31 464.88 601.52 468.70 595.70 C 472.51 589.87 475.35 582.97 479.23 577.23 C 483.11 571.49 486.20 565.78 490.08 560.08 C 493.96 554.38 497.41 547.93 501.23 542.23 C 505.05 536.53 508.23 530.69 512.08 525.08 C 515.92 519.46 518.27 511.59 522.23 506.23 C 526.19 500.87 528.06 492.84 532.08 488.08 C 536.09 483.31 536.00 471.98 541.00 469.00
C 535.08 469.55 530.62 480.96 525.25 484.25 C 519.87 487.53 514.99 495.43 509.75 499.75 C 504.52 504.07 499.39 510.45 494.25 515.25 C 489.11 520.04 483.77 525.73 478.75 530.75 C 473.73 535.77 468.59 540.53 463.75 545.75 C 458.91 550.98 452.75 555.73 448.30 561.30 C 443.86 566.88 438.28 572.00 433.25 577.25 C 428.21 582.50 423.38 588.09 418.25 593.25 C 413.12 598.40 409.26 604.18 404.00 609.00 Z"/>
</g>
<g fill="#F1A800" fill-opacity="0.98" stroke="None">
<path d="
M 586.00 661.00 
C 586.95 662.88 596.19 660.16 600.00 661.00 C 603.81 661.84 612.49 660.45 617.00 661.00 C 621.51 661.55 628.39 660.39 633.00 661.00 C 637.61 661.61 645.87 659.97 650.00 661.00 C 654.14 662.03 663.70 658.40 666.00 662.00
C 678.03 631.34 687.00 596.14 687.00 562.00
C 684.48 565.57 672.38 562.41 668.00 563.00 C 663.62 563.59 652.38 563.50 648.00 563.00 C 643.62 562.50 631.25 565.40 629.00 562.00
C 620.39 595.71 603.53 630.53 586.00 661.00 Z"/>
</g>
<g fill="#A0ACD1" fill-opacity="1.00" stroke="None">
<path d="
M 435.00 570.00 
C 437.28 567.72 439.84 565.53 442.00 563.00
C 439.72 565.28 437.16 567.47 435.00 570.00 Z"/>
</g>
<g fill="#F2B008" fill-opacity="0.93" stroke="None">
<path d="
M 373.00 647.00 
C 372.91 660.40 385.34 674.49 387.00 688.00
C 388.75 686.59 389.35 685.82 391.00 684.00
C 394.48 672.06 392.02 656.89 396.22 645.22 C 400.42 633.55 398.65 620.05 404.00 609.00
C 391.98 620.00 381.59 633.96 373.00 647.00 Z"/>
</g>
<g fill="#000000" fill-opacity="0.00" stroke="None">
<path d="
M 297.00 809.00 
C 297.02 810.40 297.87 811.24 298.00 812.00
C 303.11 787.23 319.04 761.44 335.25 742.25 C 351.45 723.05 367.20 703.95 387.00 688.00
C 385.34 674.49 372.91 660.40 373.00 647.00
C 362.17 663.44 349.42 675.83 339.25 693.25 C 329.09 710.68 320.63 725.93 311.93 744.93 C 303.22 763.93 301.01 788.22 297.00 809.00 Z"/>
</g>
<g fill="#F2BA00" fill-opacity="0.98" stroke="None">
<path d="
M 523.00 770.00 
C 524.31 772.40 536.68 768.74 541.00 770.00 C 545.32 771.26 556.01 769.00 561.00 770.00 C 565.99 771.00 576.46 768.58 581.00 770.00 C 585.54 771.42 598.62 766.86 601.00 771.00
C 626.13 736.51 650.40 701.76 666.00 662.00
C 663.70 658.40 654.14 662.03 650.00 661.00 C 645.87 659.97 637.61 661.61 633.00 661.00 C 628.39 660.39 621.51 661.55 617.00 661.00 C 612.49 660.45 603.81 661.84 600.00 661.00 C 596.19 660.16 586.95 662.88 586.00 661.00
C 565.07 697.38 539.60 731.08 523.00 770.00 Z"/>
</g>
<g fill="#F2C005" fill-opacity="0.96" stroke="None">
<path d="
M 430.00 732.00 
C 429.21 769.53 438.46 804.77 453.00 838.00
C 456.57 814.35 461.34 789.72 466.00 766.00
C 467.56 758.08 469.21 750.57 472.00 743.00
C 476.84 729.90 480.79 713.75 487.70 701.69 C 494.60 689.64 497.72 675.34 507.00 665.00
C 493.15 674.50 480.78 687.11 467.75 697.75 C 454.73 708.39 441.08 720.25 430.00 732.00 Z"/>
</g>
<g fill="#8494C4" fill-opacity="1.00" stroke="None">
<path d="
M 381.00 699.00 
C 383.13 697.18 385.00 695.00 387.00 693.00
C 384.87 694.82 383.00 697.00 381.00 699.00 Z"/>
</g>
<g fill="#798BBF" fill-opacity="1.00" stroke="None">
<path d="
M 356.00 724.00 
C 358.94 721.06 362.23 718.24 365.00 715.00
C 362.06 717.94 358.77 720.76 356.00 724.00 Z"/>
</g>
<g fill="#042191" fill-opacity="0.95" stroke="None">
<path d="
M 472.00 743.00 
C 469.21 750.57 467.56 758.08 466.00 766.00
C 476.28 772.42 483.21 784.28 488.00 795.00
C 497.18 779.58 511.48 764.76 528.00 756.00
C 510.92 750.15 498.30 734.27 490.00 719.00
C 484.05 725.60 476.84 734.85 472.00 743.00 Z"/>
</g>
<g fill="#9AA7CE" fill-opacity="1.00" stroke="None">
<path d="
M 281.00 766.00 
C 281.00 759.67 281.00 753.33 281.00 747.00
C 280.43 752.91 280.42 760.02 281.00 766.00 Z"/>
</g>
<g fill="#6F82BA" fill-opacity="1.00" stroke="None">
<path d="
M 381.00 773.00 
C 388.54 765.46 396.42 757.59 404.00 750.00
C 395.97 756.86 387.90 764.92 381.00 773.00 Z"/>
</g>
<g fill="#F3D200" fill-opacity="0.97" stroke="None">
<path d="
M 601.00 771.00 
C 598.62 766.86 585.54 771.42 581.00 770.00 C 576.46 768.58 565.99 771.00 561.00 770.00 C 556.01 769.00 545.32 771.26 541.00 770.00 C 536.68 768.74 524.31 772.40 523.00 770.00
C 490.84 834.29 492.51 915.81 522.00 981.00
C 527.08 962.61 528.46 938.00 533.07 919.07 C 537.69 900.15 542.30 880.67 549.22 863.22 C 556.15 845.78 563.18 830.23 572.70 814.70 C 582.21 799.17 590.50 785.41 601.00 771.00 Z"/>
</g>
<g fill="#576EAF" fill-opacity="1.00" stroke="None">
<path d="
M 292.00 820.00 
C 292.34 821.71 292.80 823.89 294.00 825.00
C 294.00 819.00 294.00 813.00 294.00 807.00
C 293.69 810.20 291.87 816.77 292.00 820.00 Z"/>
</g>
<g fill="#FFFFFF" fill-opacity="0.69" stroke="None">
<path d="
M 298.00 812.00 
C 297.87 811.24 297.02 810.40 297.00 809.00
C 294.81 810.70 296.56 814.48 296.00 817.00
C 298.59 816.53 297.64 813.73 298.00 812.00 Z"/>
</g>
<g fill="#8A9AC7" fill-opacity="1.00" stroke="None">
<path d="
M 330.00 878.00 
C 329.92 874.00 330.00 870.00 330.00 866.00
C 329.64 869.76 329.53 874.15 330.00 878.00 Z"/>
</g>
<g fill="#FFD30E" fill-opacity="0.33" stroke="None">
<path d="
M 160.00 879.00 
C 160.34 878.98 160.78 878.04 161.00 878.00
C 160.03 876.50 157.60 876.56 156.00 876.00
C 155.33 878.72 158.84 878.14 160.00 879.00 Z"/>
</g>
<g fill="#FED50F" fill-opacity="0.97" stroke="None">
<path d="
M 160.00 879.00 
C 166.90 884.12 174.57 889.21 181.77 894.23 C 188.97 899.25 196.38 904.34 203.25 909.75 C 210.11 915.17 216.88 920.75 223.30 926.70 C 229.73 932.65 236.72 937.87 242.75 944.25 C 248.79 950.63 254.61 956.94 260.70 963.30 C 266.78 969.67 271.08 976.55 276.75 983.25 C 282.43 989.95 287.58 997.15 292.70 1004.30 C 297.81 1011.46 302.61 1019.04 307.70 1026.30 C 312.79 1033.57 317.18 1041.44 322.25 1048.75 C 327.31 1056.07 332.28 1063.14 337.75 1070.25 C 343.22 1077.36 349.04 1083.24 355.75 1089.25 C 362.46 1095.25 368.01 1100.33 376.31 1104.70 C 384.60 1109.06 392.77 1112.93 402.32 1115.68 C 411.88 1118.43 422.44 1120.53 433.00 1122.00 C 443.56 1123.47 457.85 1122.59 469.00 1123.00 C 480.15 1123.41 493.05 1121.97 503.33 1120.33 C 513.61 1118.69 523.74 1116.19 532.92 1112.92 C 542.11 1109.66 548.88 1105.33 556.92 1100.92 C 564.97 1096.52 571.19 1091.00 577.92 1084.92 C 584.65 1078.83 590.05 1072.73 595.75 1065.75 C 601.44 1058.76 606.06 1051.52 611.23 1044.23 C 616.40 1036.94 620.44 1028.74 625.25 1021.25 C 630.05 1013.76 634.67 1005.79 639.23 998.23 C 643.79 990.67 648.46 983.57 653.23 976.23 C 658.00 968.89 663.27 961.36 668.25 954.25 C 673.22 947.13 679.71 940.84 685.08 934.08 C 690.45 927.32 697.10 921.19 702.75 914.75 C 708.41 908.31 717.72 904.05 722.75 897.75 C 727.78 891.46 739.83 888.50 743.00 882.00
C 743.20 881.60 742.75 880.25 743.00 880.00
C 732.05 881.13 720.77 887.22 710.68 890.68 C 700.59 894.14 691.13 898.93 682.08 904.08 C 673.02 909.22 663.94 913.65 655.75 919.75 C 647.55 925.84 639.73 931.44 632.25 938.25 C 624.77 945.06 617.73 951.47 610.92 958.92 C 604.10 966.37 597.97 973.91 591.75 981.75 C 585.53 989.59 579.14 997.20 573.30 1005.30 C 567.47 1013.41 561.76 1021.73 555.75 1029.75 C 549.75 1037.78 543.95 1045.63 537.25 1053.25 C 530.55 1060.86 524.37 1067.82 516.08 1074.08 C 507.79 1080.34 499.19 1085.33 489.02 1089.02 C 478.86 1092.72 462.86 1093.54 452.00 1092.00 C 441.14 1090.45 428.96 1086.77 420.25 1080.75 C 411.53 1074.74 405.26 1068.36 398.30 1060.70 C 391.34 1053.03 386.34 1044.81 380.25 1036.75 C 374.17 1028.68 368.75 1020.25 362.77 1012.23 C 356.79 1004.21 350.89 996.05 344.75 988.25 C 338.61 980.44 330.92 974.15 324.25 966.75 C 317.59 959.34 310.12 953.08 302.25 946.75 C 294.37 940.42 286.90 933.95 278.25 928.75 C 269.59 923.56 261.35 917.27 252.08 912.92 C 242.80 908.58 233.25 903.00 223.69 899.31 C 214.14 895.61 203.22 889.61 193.23 887.77 C 183.24 885.93 171.31 875.97 161.00 878.00
C 160.78 878.04 160.34 878.98 160.00 879.00 Z"/>
</g>
<g fill="#FFDB0C" fill-opacity="0.27" stroke="None">
<path d="
M 743.00 880.00 
C 742.75 880.25 743.20 881.60 743.00 882.00
C 744.36 881.58 745.33 880.20 746.00 879.00
C 744.94 878.13 743.40 879.96 743.00 880.00 Z"/>
</g>
<g fill="#7588BD" fill-opacity="1.00" stroke="None">
<path d="
M 340.00 920.00 
C 336.80 916.79 333.25 913.25 330.00 910.00
C 333.03 913.55 336.40 916.92 340.00 920.00 Z"/>
</g>
<g fill="#94A4CD" fill-opacity="1.00" stroke="None">
<path d="
M 356.00 933.00 
C 356.28 934.23 357.72 935.27 359.00 935.00
C 358.48 933.09 356.26 932.26 355.00 931.00
C 355.38 931.62 355.55 932.38 356.00 933.00 Z"/>
</g>
<g fill="#04228A" fill-opacity="0.80" stroke="None">
<path d="
M 778.00 1065.00 
C 785.98 1057.51 777.55 1043.83 768.03 1046.03 C 758.50 1048.22 754.65 1055.77 746.00 1059.00
C 752.04 1070.86 761.95 1081.14 768.00 1093.00
C 770.41 1092.99 771.72 1090.55 774.00 1090.00
C 772.05 1084.31 765.76 1080.18 765.00 1074.00
C 775.23 1061.87 789.40 1084.36 798.00 1072.00
C 791.33 1069.70 785.04 1066.13 778.00 1065.00
M 760.00 1070.00 
C 759.44 1066.24 755.21 1063.96 755.00 1060.00
C 759.66 1057.32 770.03 1047.35 773.92 1055.08 C 777.80 1062.81 764.67 1067.22 760.00 1070.00 Z"/>
</g>
<g fill="#04228B" fill-opacity="0.80" stroke="None">
<path d="
M 146.00 1050.00 
C 143.72 1049.50 142.37 1047.03 140.00 1047.00
C 136.43 1055.86 131.68 1061.47 127.32 1070.32 C 122.97 1079.17 127.62 1088.13 136.93 1092.07 C 146.24 1096.02 156.21 1088.26 159.08 1080.08 C 161.94 1071.89 173.35 1063.20 162.00 1060.00
C 156.85 1067.83 150.35 1093.66 136.75 1085.25 C 123.14 1076.85 143.85 1059.86 146.00 1050.00 Z"/>
</g>
<g fill="#000000" fill-opacity="0.00" stroke="None">
<path d="
M 760.00 1070.00 
C 764.67 1067.22 777.80 1062.81 773.92 1055.08 C 770.03 1047.35 759.66 1057.32 755.00 1060.00
C 755.21 1063.96 759.44 1066.24 760.00 1070.00 Z"/>
</g>
<g fill="#04228A" fill-opacity="0.78" stroke="None">
<path d="
M 762.00 1098.00 
C 758.70 1091.75 753.94 1083.91 749.77 1078.23 C 745.60 1072.54 743.12 1060.78 735.00 1066.00
C 738.30 1072.25 743.06 1080.09 747.23 1085.77 C 751.40 1091.46 753.88 1103.22 762.00 1098.00 Z"/>
</g>
<g fill="#04228A" fill-opacity="0.80" stroke="None">
<path d="
M 179.00 1068.00 
C 176.71 1068.16 175.25 1065.86 173.00 1066.00
C 167.59 1078.17 160.66 1089.80 155.00 1102.00
C 161.44 1106.81 163.71 1099.01 166.08 1094.08 C 168.44 1089.14 171.27 1084.16 173.00 1079.00
C 176.54 1084.37 175.06 1093.06 176.67 1099.33 C 178.28 1105.60 175.15 1115.38 184.00 1116.00
C 187.15 1109.77 191.37 1101.29 194.23 1095.23 C 197.09 1089.17 207.13 1079.19 196.00 1078.00
C 193.37 1086.91 186.63 1094.11 184.00 1103.00
C 180.68 1092.23 180.94 1079.50 179.00 1068.00 Z"/>
</g>
<g fill="#04228B" fill-opacity="0.78" stroke="None">
<path d="
M 734.00 1075.00 
C 734.10 1072.57 732.96 1068.88 730.00 1069.00
C 726.14 1073.12 719.30 1075.53 714.70 1078.70 C 710.09 1081.86 701.67 1083.59 706.00 1090.00
C 710.38 1088.97 713.70 1085.50 718.00 1084.00
C 721.76 1089.07 724.46 1095.87 728.08 1100.92 C 731.71 1105.97 733.58 1116.05 741.00 1111.00
C 736.32 1100.31 728.57 1090.74 724.00 1080.00
C 727.63 1078.86 730.22 1075.56 734.00 1075.00 Z"/>
</g>
<g fill="#04228B" fill-opacity="0.78" stroke="None">
<path d="
M 198.00 1122.00 
C 200.23 1115.51 204.53 1107.32 207.23 1101.23 C 209.93 1095.14 218.83 1084.97 208.00 1084.00
C 205.59 1090.48 201.29 1098.54 198.77 1104.77 C 196.25 1111.00 186.56 1121.44 198.00 1122.00 Z"/>
</g>
<g fill="#04228B" fill-opacity="0.80" stroke="None">
<path d="
M 220.00 1125.00 
C 220.85 1118.57 221.95 1110.44 222.00 1104.00 C 222.05 1097.56 225.97 1088.36 217.00 1088.00
C 215.46 1095.50 216.35 1106.44 215.93 1113.93 C 215.51 1121.41 211.30 1131.84 221.00 1133.00
C 230.29 1122.22 241.66 1112.83 251.00 1102.00
C 243.51 1096.64 240.04 1106.43 234.75 1110.75 C 229.46 1115.07 225.57 1121.06 220.00 1125.00 Z"/>
</g>
<g fill="#04228A" fill-opacity="0.80" stroke="None">
<path d="
M 702.00 1100.00 
C 713.63 1093.25 696.08 1087.57 688.23 1092.23 C 680.38 1096.89 676.30 1107.30 683.93 1113.07 C 691.55 1118.85 708.64 1106.31 711.60 1116.26 C 714.55 1126.20 693.38 1128.56 692.00 1121.00
C 680.39 1126.64 697.61 1134.79 705.31 1130.31 C 713.00 1125.82 721.73 1119.34 714.90 1109.10 C 708.07 1098.86 695.70 1112.24 687.25 1107.75 C 678.81 1103.26 699.40 1088.05 702.00 1100.00 Z"/>
</g>
<g fill="#04228A" fill-opacity="0.80" stroke="None">
<path d="
M 280.00 1113.00 
C 270.34 1110.72 261.47 1105.84 252.00 1103.00
C 248.37 1115.99 242.44 1128.23 238.00 1141.00
C 244.20 1144.24 249.99 1143.68 255.98 1148.02 C 261.96 1152.37 272.14 1148.94 264.22 1144.78 C 256.31 1140.61 253.65 1141.08 246.00 1138.00
C 247.25 1133.95 249.50 1130.22 250.00 1126.00
C 257.41 1126.79 269.47 1139.11 273.00 1129.00
C 264.84 1124.20 247.00 1123.99 256.00 1111.00
C 263.72 1110.60 278.11 1125.33 280.00 1113.00 Z"/>
</g>
<g fill="#04228A" fill-opacity="0.80" stroke="None">
<path d="
M 657.00 1152.00 
C 667.92 1151.03 657.43 1139.71 665.31 1135.31 C 673.18 1130.90 675.95 1131.21 682.25 1136.75 C 688.55 1142.29 694.14 1135.62 684.25 1129.75 C 674.36 1123.89 667.69 1105.08 655.00 1108.00
C 655.20 1122.79 655.51 1137.55 657.00 1152.00
M 662.00 1115.00 
C 663.40 1119.98 669.51 1122.53 672.00 1127.00
C 668.19 1127.84 664.84 1130.16 661.00 1131.00
C 661.65 1125.83 659.69 1119.34 662.00 1115.00 Z"/>
</g>
<g fill="#04228A" fill-opacity="0.80" stroke="None">
<path d="
M 640.00 1115.00 
C 629.17 1119.95 642.91 1135.00 644.00 1144.00
C 637.87 1141.81 633.37 1135.50 627.70 1132.30 C 622.03 1129.10 616.70 1121.28 610.00 1126.00
C 612.79 1132.61 614.71 1142.04 617.69 1148.31 C 620.68 1154.57 620.52 1167.04 629.00 1162.00
C 626.52 1152.82 622.16 1144.21 620.00 1135.00
C 631.24 1140.48 640.16 1155.29 653.00 1154.00
C 650.25 1140.53 644.26 1128.03 640.00 1115.00 Z"/>
</g>
<g fill="#000000" fill-opacity="0.00" stroke="None">
<path d="
M 662.00 1115.00 
C 659.69 1119.34 661.65 1125.83 661.00 1131.00
C 664.84 1130.16 668.19 1127.84 672.00 1127.00
C 669.51 1122.53 663.40 1119.98 662.00 1115.00 Z"/>
</g>
<g fill="#04228B" fill-opacity="0.80" stroke="None">
<path d="
M 300.00 1144.00 
C 309.77 1146.50 317.72 1130.81 310.23 1124.77 C 302.74 1118.73 292.69 1118.42 284.00 1116.00
C 283.09 1123.17 279.14 1131.66 277.32 1138.32 C 275.51 1144.99 268.71 1154.92 279.00 1156.00
C 279.35 1149.96 282.16 1144.62 284.00 1139.00
C 295.76 1140.66 297.28 1153.56 299.00 1163.00
C 301.54 1162.98 303.76 1164.01 306.00 1165.00
C 305.55 1157.56 303.52 1150.50 300.00 1144.00
M 286.00 1134.00 
C 286.08 1130.09 288.43 1126.82 289.00 1123.00
C 293.66 1124.87 308.51 1125.35 306.00 1134.00 C 303.48 1142.65 290.94 1134.67 286.00 1134.00 Z"/>
</g>
<g fill="#000000" fill-opacity="0.00" stroke="None">
<path d="
M 286.00 1134.00 
C 290.94 1134.67 303.48 1142.65 306.00 1134.00 C 308.51 1125.35 293.66 1124.87 289.00 1123.00
C 288.43 1126.82 286.08 1130.09 286.00 1134.00 Z"/>
</g>
<g fill="#04228B" fill-opacity="0.80" stroke="None">
<path d="
M 346.00 1146.00 
C 348.64 1136.91 340.93 1132.00 334.07 1129.93 C 327.21 1127.86 316.89 1130.29 317.00 1139.00 C 317.11 1147.70 323.53 1149.51 330.77 1153.23 C 338.01 1156.95 338.01 1166.44 327.07 1164.93 C 316.14 1163.41 321.33 1153.00 312.00 1152.00
C 309.22 1159.78 314.57 1166.65 321.78 1169.22 C 328.98 1171.80 337.51 1172.10 341.69 1164.69 C 345.88 1157.29 339.41 1149.73 332.75 1147.25 C 326.08 1144.78 318.07 1137.08 329.00 1135.00 C 339.93 1132.92 337.64 1145.70 346.00 1146.00 Z"/>
</g>
<g fill="#04228A" fill-opacity="0.81" stroke="None">
<path d="
M 595.00 1130.00 
C 568.81 1129.13 568.20 1170.67 594.00 1172.00 C 619.79 1173.33 619.41 1130.81 595.00 1130.00
M 597.00 1136.00 
C 613.00 1139.66 608.90 1170.76 591.93 1166.07 C 574.95 1161.38 578.74 1131.82 597.00 1136.00 Z"/>
</g>
<g fill="#04228A" fill-opacity="0.80" stroke="None">
<path d="
M 353.00 1176.00 
C 353.13 1169.01 357.41 1160.59 358.00 1154.00 C 358.59 1147.41 365.17 1135.28 355.00 1136.00
C 354.54 1142.97 350.64 1151.34 350.00 1158.00 C 349.35 1164.66 342.84 1176.30 353.00 1176.00 Z"/>
</g>
<g fill="#000000" fill-opacity="0.00" stroke="None">
<path d="
M 597.00 1136.00 
C 578.74 1131.82 574.95 1161.38 591.93 1166.07 C 608.90 1170.76 613.00 1139.66 597.00 1136.00 Z"/>
</g>
<g fill="#04228B" fill-opacity="0.80" stroke="None">
<path d="
M 396.00 1149.00 
C 398.07 1140.74 385.50 1141.14 380.00 1140.00 C 374.50 1138.86 362.37 1134.98 364.00 1144.00
C 368.27 1143.36 371.75 1145.64 376.00 1145.00
C 376.05 1151.78 373.66 1159.56 372.98 1165.98 C 372.29 1172.40 367.51 1180.97 377.00 1181.00
C 376.59 1171.75 381.15 1166.43 381.00 1157.00 C 380.86 1147.58 386.99 1144.94 396.00 1149.00 Z"/>
</g>
<g fill="#04228A" fill-opacity="0.80" stroke="None">
<path d="
M 569.00 1178.00 
C 577.92 1178.50 574.22 1167.30 572.00 1161.00 C 569.77 1154.70 572.65 1145.97 568.29 1139.71 C 563.94 1133.44 556.89 1144.69 558.00 1151.00 C 559.11 1157.31 555.37 1166.40 554.00 1172.00
C 547.23 1162.46 544.98 1139.97 530.00 1144.00
C 532.23 1157.37 534.77 1170.66 537.00 1184.00
C 545.98 1184.79 541.36 1176.42 540.99 1171.01 C 540.63 1165.60 537.43 1158.75 539.00 1154.00
C 540.88 1159.40 544.15 1165.00 547.08 1169.92 C 550.01 1174.83 551.85 1183.47 559.00 1180.00
C 559.68 1169.82 562.72 1160.26 563.00 1150.00
C 566.90 1158.34 566.63 1168.87 569.00 1178.00 Z"/>
</g>
<g fill="#04228A" fill-opacity="0.81" stroke="None">
<path d="
M 404.00 1150.00 
C 411.77 1148.56 415.95 1153.81 423.99 1151.99 C 432.03 1150.17 423.69 1144.24 417.22 1145.78 C 410.75 1147.32 404.74 1142.00 398.00 1144.00
C 397.60 1157.57 395.30 1170.67 394.00 1184.00
C 399.94 1183.26 406.48 1185.72 412.00 1186.00 C 417.52 1186.28 426.23 1189.26 425.00 1181.00
C 416.84 1180.94 409.15 1179.06 401.00 1179.00
C 400.84 1174.51 402.72 1170.61 402.00 1166.00
C 409.10 1167.81 416.86 1167.34 424.00 1169.00
C 425.38 1158.23 409.85 1163.32 403.00 1161.00
C 402.51 1157.10 404.72 1153.94 404.00 1150.00 Z"/>
</g>
<g fill="#04228A" fill-opacity="0.81" stroke="None">
<path d="
M 513.00 1152.00 
C 513.52 1143.34 506.75 1147.35 501.00 1147.00 C 495.25 1146.65 488.85 1148.42 483.00 1148.00
C 481.55 1156.94 486.52 1164.03 485.00 1173.00 C 483.48 1181.97 486.71 1191.86 496.93 1187.93 C 507.14 1184.00 513.88 1191.78 516.00 1181.00
C 507.39 1180.28 499.57 1182.62 491.00 1182.00
C 491.00 1178.00 491.00 1174.00 491.00 1170.00
C 497.60 1167.03 513.58 1173.91 512.00 1163.00
C 504.49 1162.69 497.61 1164.76 490.00 1164.00
C 490.00 1160.33 490.00 1156.67 490.00 1153.00
C 497.94 1153.72 505.10 1151.39 513.00 1152.00 Z"/>
</g>
<g fill="#04228A" fill-opacity="0.84" stroke="None">
<path d="
M 446.00 1188.00 
C 463.50 1190.43 479.04 1187.69 479.00 1168.00 C 478.96 1148.31 463.06 1145.97 446.00 1148.00
C 446.00 1161.34 446.00 1174.66 446.00 1188.00
M 452.00 1183.00 
C 452.00 1173.33 452.00 1163.67 452.00 1154.00
C 463.50 1151.78 473.01 1155.67 473.00 1168.00 C 472.99 1180.33 463.92 1185.23 452.00 1183.00 Z"/>
</g>
<g fill="#000000" fill-opacity="0.00" stroke="None">
<path d="
M 452.00 1183.00 
C 463.92 1185.23 472.99 1180.33 473.00 1168.00 C 473.01 1155.67 463.50 1151.78 452.00 1154.00
C 452.00 1163.67 452.00 1173.33 452.00 1183.00 Z"/>
</g>
</svg>